<mxfile host="app.diagrams.net" agent="Mozilla/5.0 (Macintosh; Intel Mac OS X 10_15_7) AppleWebKit/537.36 (KHTML, like Gecko) Chrome/131.0.0.0 Safari/537.36" version="25.0.3">
  <diagram name="Page-1" id="D25WAysY4DpAJ0hqZQWx">
    <mxGraphModel dx="5084" dy="3343" grid="1" gridSize="10" guides="1" tooltips="1" connect="1" arrows="1" fold="1" page="1" pageScale="1" pageWidth="850" pageHeight="1100" math="0" shadow="0">
      <root>
        <mxCell id="0" />
        <mxCell id="1" parent="0" />
        <UserObject label="" plantUmlData="{&quot;data&quot;:&quot;@startuml\nactor Player as user\nparticipant PokerMate as system\n\nuser -&gt; system: Click \&quot;Pause\&quot;\nsystem -&gt; system: Check if player is admin\nalt Player is admin\n    system -&gt; system: Pause the game\nelse Player is not admin\n    system -&gt; user: Show error message\nend\n@enduml&quot;,&quot;format&quot;:&quot;svg&quot;}" id="JsT6jiiGknChtP9WsYum-1">
          <mxCell style="shape=image;noLabel=1;verticalAlign=top;aspect=fixed;imageAspect=0;image=data:image/svg+xml,PD94bWwgdmVyc2lvbj0iMS4wIiBlbmNvZGluZz0idXMtYXNjaWkiIHN0YW5kYWxvbmU9Im5vIj8+PHN2ZyB4bWxucz0iaHR0cDovL3d3dy53My5vcmcvMjAwMC9zdmciIHhtbG5zOnhsaW5rPSJodHRwOi8vd3d3LnczLm9yZy8xOTk5L3hsaW5rIiBjb250ZW50U3R5bGVUeXBlPSJ0ZXh0L2NzcyIgaGVpZ2h0PSIzNjBweCIgcHJlc2VydmVBc3BlY3RSYXRpbz0ibm9uZSIgc3R5bGU9IndpZHRoOjM2OHB4O2hlaWdodDozNjBweDtiYWNrZ3JvdW5kOiNGRkZGRkY7IiB2ZXJzaW9uPSIxLjEiIHZpZXdCb3g9IjAgMCAzNjggMzYwIiB3aWR0aD0iMzY4cHgiIHpvb21BbmRQYW49Im1hZ25pZnkiPjxkZWZzLz48Zz48cmVjdCBmaWxsPSJub25lIiBoZWlnaHQ9Ijk4LjUxNTYiIHN0eWxlPSJzdHJva2U6IzAwMDAwMDtzdHJva2Utd2lkdGg6MS41OyIgd2lkdGg9IjI5NyIgeD0iMTAiIHk9IjE2NS44MTI1Ii8+PGxpbmUgc3R5bGU9InN0cm9rZTojMTgxODE4O3N0cm9rZS13aWR0aDowLjU7c3Ryb2tlLWRhc2hhcnJheTo1LjAsNS4wOyIgeDE9IjQ0IiB4Mj0iNDQiIHkxPSI3OS45ODQ0IiB5Mj0iMjgxLjMyODEiLz48bGluZSBzdHlsZT0ic3Ryb2tlOiMxODE4MTg7c3Ryb2tlLXdpZHRoOjAuNTtzdHJva2UtZGFzaGFycmF5OjUuMCw1LjA7IiB4MT0iMTkxLjUiIHgyPSIxOTEuNSIgeTE9Ijc5Ljk4NDQiIHkyPSIyODEuMzI4MSIvPjx0ZXh0IGZpbGw9IiMwMDAwMDAiIGZvbnQtZmFtaWx5PSJzYW5zLXNlcmlmIiBmb250LXNpemU9IjE0IiBsZW5ndGhBZGp1c3Q9InNwYWNpbmciIHRleHRMZW5ndGg9IjQyIiB4PSIyMCIgeT0iNzguMjM0NCI+UGxheWVyPC90ZXh0PjxlbGxpcHNlIGN4PSI0NCIgY3k9IjEzLjUiIGZpbGw9IiNFMkUyRjAiIHJ4PSI4IiByeT0iOCIgc3R5bGU9InN0cm9rZTojMTgxODE4O3N0cm9rZS13aWR0aDowLjU7Ii8+PHBhdGggZD0iTTQ0LDIxLjUgTDQ0LDQ4LjUgTTMxLDI5LjUgTDU3LDI5LjUgTTQ0LDQ4LjUgTDMxLDYzLjUgTTQ0LDQ4LjUgTDU3LDYzLjUgIiBmaWxsPSJub25lIiBzdHlsZT0ic3Ryb2tlOiMxODE4MTg7c3Ryb2tlLXdpZHRoOjAuNTsiLz48dGV4dCBmaWxsPSIjMDAwMDAwIiBmb250LWZhbWlseT0ic2Fucy1zZXJpZiIgZm9udC1zaXplPSIxNCIgbGVuZ3RoQWRqdXN0PSJzcGFjaW5nIiB0ZXh0TGVuZ3RoPSI0MiIgeD0iMjAiIHk9IjI5My41NjI1Ij5QbGF5ZXI8L3RleHQ+PGVsbGlwc2UgY3g9IjQ0IiBjeT0iMzAzLjgxMjUiIGZpbGw9IiNFMkUyRjAiIHJ4PSI4IiByeT0iOCIgc3R5bGU9InN0cm9rZTojMTgxODE4O3N0cm9rZS13aWR0aDowLjU7Ii8+PHBhdGggZD0iTTQ0LDMxMS44MTI1IEw0NCwzMzguODEyNSBNMzEsMzE5LjgxMjUgTDU3LDMxOS44MTI1IE00NCwzMzguODEyNSBMMzEsMzUzLjgxMjUgTTQ0LDMzOC44MTI1IEw1NywzNTMuODEyNSAiIGZpbGw9Im5vbmUiIHN0eWxlPSJzdHJva2U6IzE4MTgxODtzdHJva2Utd2lkdGg6MC41OyIvPjxyZWN0IGZpbGw9IiNFMkUyRjAiIGhlaWdodD0iMjguOTg0NCIgcng9IjIuNSIgcnk9IjIuNSIgc3R5bGU9InN0cm9rZTojMTgxODE4O3N0cm9rZS13aWR0aDowLjU7IiB3aWR0aD0iNzciIHg9IjE1My41IiB5PSI1MCIvPjx0ZXh0IGZpbGw9IiMwMDAwMDAiIGZvbnQtZmFtaWx5PSJzYW5zLXNlcmlmIiBmb250LXNpemU9IjE0IiBsZW5ndGhBZGp1c3Q9InNwYWNpbmciIHRleHRMZW5ndGg9IjYzIiB4PSIxNjAuNSIgeT0iNzAuMjM0NCI+UG9rZXJNYXRlPC90ZXh0PjxyZWN0IGZpbGw9IiNFMkUyRjAiIGhlaWdodD0iMjguOTg0NCIgcng9IjIuNSIgcnk9IjIuNSIgc3R5bGU9InN0cm9rZTojMTgxODE4O3N0cm9rZS13aWR0aDowLjU7IiB3aWR0aD0iNzciIHg9IjE1My41IiB5PSIyODAuMzI4MSIvPjx0ZXh0IGZpbGw9IiMwMDAwMDAiIGZvbnQtZmFtaWx5PSJzYW5zLXNlcmlmIiBmb250LXNpemU9IjE0IiBsZW5ndGhBZGp1c3Q9InNwYWNpbmciIHRleHRMZW5ndGg9IjYzIiB4PSIxNjAuNSIgeT0iMzAwLjU2MjUiPlBva2VyTWF0ZTwvdGV4dD48cG9seWdvbiBmaWxsPSIjMTgxODE4IiBwb2ludHM9IjE4MCwxMDUuODk4NCwxOTAsMTA5Ljg5ODQsMTgwLDExMy44OTg0LDE4NCwxMDkuODk4NCIgc3R5bGU9InN0cm9rZTojMTgxODE4O3N0cm9rZS13aWR0aDoxLjA7Ii8+PGxpbmUgc3R5bGU9InN0cm9rZTojMTgxODE4O3N0cm9rZS13aWR0aDoxLjA7IiB4MT0iNDQiIHgyPSIxODYiIHkxPSIxMDkuODk4NCIgeTI9IjEwOS44OTg0Ii8+PHRleHQgZmlsbD0iIzAwMDAwMCIgZm9udC1mYW1pbHk9InNhbnMtc2VyaWYiIGZvbnQtc2l6ZT0iMTMiIGxlbmd0aEFkanVzdD0ic3BhY2luZyIgdGV4dExlbmd0aD0iODkiIHg9IjUxIiB5PSIxMDYuMjczNCI+Q2xpY2sgIlBhdXNlIjwvdGV4dD48bGluZSBzdHlsZT0ic3Ryb2tlOiMxODE4MTg7c3Ryb2tlLXdpZHRoOjEuMDsiIHgxPSIxOTIiIHgyPSIyMzQiIHkxPSIxMzcuODEyNSIgeTI9IjEzNy44MTI1Ii8+PGxpbmUgc3R5bGU9InN0cm9rZTojMTgxODE4O3N0cm9rZS13aWR0aDoxLjA7IiB4MT0iMjM0IiB4Mj0iMjM0IiB5MT0iMTM3LjgxMjUiIHkyPSIxNTAuODEyNSIvPjxsaW5lIHN0eWxlPSJzdHJva2U6IzE4MTgxODtzdHJva2Utd2lkdGg6MS4wOyIgeDE9IjE5MyIgeDI9IjIzNCIgeTE9IjE1MC44MTI1IiB5Mj0iMTUwLjgxMjUiLz48cG9seWdvbiBmaWxsPSIjMTgxODE4IiBwb2ludHM9IjIwMywxNDYuODEyNSwxOTMsMTUwLjgxMjUsMjAzLDE1NC44MTI1LDE5OSwxNTAuODEyNSIgc3R5bGU9InN0cm9rZTojMTgxODE4O3N0cm9rZS13aWR0aDoxLjA7Ii8+PHRleHQgZmlsbD0iIzAwMDAwMCIgZm9udC1mYW1pbHk9InNhbnMtc2VyaWYiIGZvbnQtc2l6ZT0iMTMiIGxlbmd0aEFkanVzdD0ic3BhY2luZyIgdGV4dExlbmd0aD0iMTYyIiB4PSIxOTkiIHk9IjEzNC4xODc1Ij5DaGVjayBpZiBwbGF5ZXIgaXMgYWRtaW48L3RleHQ+PHBhdGggZD0iTTEwLDE2NS44MTI1IEw3NCwxNjUuODEyNSBMNzQsMTcxLjcyNjYgTDY0LDE4MS43MjY2IEwxMCwxODEuNzI2NiBMMTAsMTY1LjgxMjUgIiBmaWxsPSIjRUVFRUVFIiBzdHlsZT0ic3Ryb2tlOiMwMDAwMDA7c3Ryb2tlLXdpZHRoOjEuNTsiLz48cmVjdCBmaWxsPSJub25lIiBoZWlnaHQ9Ijk4LjUxNTYiIHN0eWxlPSJzdHJva2U6IzAwMDAwMDtzdHJva2Utd2lkdGg6MS41OyIgd2lkdGg9IjI5NyIgeD0iMTAiIHk9IjE2NS44MTI1Ii8+PHRleHQgZmlsbD0iIzAwMDAwMCIgZm9udC1mYW1pbHk9InNhbnMtc2VyaWYiIGZvbnQtc2l6ZT0iMTMiIGZvbnQtd2VpZ2h0PSJib2xkIiBsZW5ndGhBZGp1c3Q9InNwYWNpbmciIHRleHRMZW5ndGg9IjE5IiB4PSIyNSIgeT0iMTc5LjEwMTYiPmFsdDwvdGV4dD48dGV4dCBmaWxsPSIjMDAwMDAwIiBmb250LWZhbWlseT0ic2Fucy1zZXJpZiIgZm9udC1zaXplPSIxMSIgZm9udC13ZWlnaHQ9ImJvbGQiIGxlbmd0aEFkanVzdD0ic3BhY2luZyIgdGV4dExlbmd0aD0iMTAyIiB4PSI4OSIgeT0iMTc4LjIxMDkiPltQbGF5ZXIgaXMgYWRtaW5dPC90ZXh0PjxsaW5lIHN0eWxlPSJzdHJva2U6IzE4MTgxODtzdHJva2Utd2lkdGg6MS4wOyIgeDE9IjE5MiIgeDI9IjIzNCIgeTE9IjIwMS42NDA2IiB5Mj0iMjAxLjY0MDYiLz48bGluZSBzdHlsZT0ic3Ryb2tlOiMxODE4MTg7c3Ryb2tlLXdpZHRoOjEuMDsiIHgxPSIyMzQiIHgyPSIyMzQiIHkxPSIyMDEuNjQwNiIgeTI9IjIxNC42NDA2Ii8+PGxpbmUgc3R5bGU9InN0cm9rZTojMTgxODE4O3N0cm9rZS13aWR0aDoxLjA7IiB4MT0iMTkzIiB4Mj0iMjM0IiB5MT0iMjE0LjY0MDYiIHkyPSIyMTQuNjQwNiIvPjxwb2x5Z29uIGZpbGw9IiMxODE4MTgiIHBvaW50cz0iMjAzLDIxMC42NDA2LDE5MywyMTQuNjQwNiwyMDMsMjE4LjY0MDYsMTk5LDIxNC42NDA2IiBzdHlsZT0ic3Ryb2tlOiMxODE4MTg7c3Ryb2tlLXdpZHRoOjEuMDsiLz48dGV4dCBmaWxsPSIjMDAwMDAwIiBmb250LWZhbWlseT0ic2Fucy1zZXJpZiIgZm9udC1zaXplPSIxMyIgbGVuZ3RoQWRqdXN0PSJzcGFjaW5nIiB0ZXh0TGVuZ3RoPSI5NiIgeD0iMTk5IiB5PSIxOTguMDE1NiI+UGF1c2UgdGhlIGdhbWU8L3RleHQ+PGxpbmUgc3R5bGU9InN0cm9rZTojMDAwMDAwO3N0cm9rZS13aWR0aDoxLjA7c3Ryb2tlLWRhc2hhcnJheToyLjAsMi4wOyIgeDE9IjEwIiB4Mj0iMzA3IiB5MT0iMjIzLjY0MDYiIHkyPSIyMjMuNjQwNiIvPjx0ZXh0IGZpbGw9IiMwMDAwMDAiIGZvbnQtZmFtaWx5PSJzYW5zLXNlcmlmIiBmb250LXNpemU9IjExIiBmb250LXdlaWdodD0iYm9sZCIgbGVuZ3RoQWRqdXN0PSJzcGFjaW5nIiB0ZXh0TGVuZ3RoPSIxMjYiIHg9IjE1IiB5PSIyMzQuMDM5MSI+W1BsYXllciBpcyBub3QgYWRtaW5dPC90ZXh0Pjxwb2x5Z29uIGZpbGw9IiMxODE4MTgiIHBvaW50cz0iNTUsMjUyLjMyODEsNDUsMjU2LjMyODEsNTUsMjYwLjMyODEsNTEsMjU2LjMyODEiIHN0eWxlPSJzdHJva2U6IzE4MTgxODtzdHJva2Utd2lkdGg6MS4wOyIvPjxsaW5lIHN0eWxlPSJzdHJva2U6IzE4MTgxODtzdHJva2Utd2lkdGg6MS4wOyIgeDE9IjQ5IiB4Mj0iMTkxIiB5MT0iMjU2LjMyODEiIHkyPSIyNTYuMzI4MSIvPjx0ZXh0IGZpbGw9IiMwMDAwMDAiIGZvbnQtZmFtaWx5PSJzYW5zLXNlcmlmIiBmb250LXNpemU9IjEzIiBsZW5ndGhBZGp1c3Q9InNwYWNpbmciIHRleHRMZW5ndGg9IjEyNCIgeD0iNjEiIHk9IjI1Mi43MDMxIj5TaG93IGVycm9yIG1lc3NhZ2U8L3RleHQ+PCEtLVNSQz1bUkt6OTNpOTAzQmxGQXdwVS1LMEZOM1daTFU4NUtIbFFLTVVmYVkzS3RwRkppV1gxUmhQWkV3N1VpZzBCakJBMDUzVGJTR2s5LVR1bGIwblRkYmRFUDVuTE5US3VFYlV0UzNXLVNPakp5RnNDZmdDWUQ2dmRsX0k5WS13bE1GT1lodzBYLWtHZXNBbHlwUTdDUnlJTTNQaU84cUxzNzBod0U1RXNsLXZ3UThsQmJFeldhVjlmUDVLUVlweUQzbTAwXS0tPjwvZz48L3N2Zz4=;" vertex="1" parent="1">
            <mxGeometry x="241" y="40" width="368" height="360" as="geometry" />
          </mxCell>
        </UserObject>
        <UserObject label="" plantUmlData="{&quot;data&quot;:&quot;@startuml\nactor Player as user\nparticipant PokerMate as system\nparticipant DataBase as database\n\n\nuser -&gt; system: Click \&quot;Watch Statistics\&quot;\nsystem -&gt; database: Request stats from DB\ndatabase -&gt; database: Check if player exists in DB\nalt Player is signed in and exists\n    database -&gt; system: Sends statistics data\n    system -&gt; user: Show stats\nelse Player is not signed in or dosen&#39;t exists\n    database -&gt; system: Sends &#39;-1&#39;\n    system -&gt; user: Show error message\n    \nend\n@enduml&quot;,&quot;format&quot;:&quot;svg&quot;}" id="JsT6jiiGknChtP9WsYum-2">
          <mxCell style="shape=image;noLabel=1;verticalAlign=top;aspect=fixed;imageAspect=0;image=data:image/svg+xml,PD94bWwgdmVyc2lvbj0iMS4wIiBlbmNvZGluZz0idXMtYXNjaWkiIHN0YW5kYWxvbmU9Im5vIj8+PHN2ZyB4bWxucz0iaHR0cDovL3d3dy53My5vcmcvMjAwMC9zdmciIHhtbG5zOnhsaW5rPSJodHRwOi8vd3d3LnczLm9yZy8xOTk5L3hsaW5rIiBjb250ZW50U3R5bGVUeXBlPSJ0ZXh0L2NzcyIgaGVpZ2h0PSI0MzFweCIgcHJlc2VydmVBc3BlY3RSYXRpbz0ibm9uZSIgc3R5bGU9IndpZHRoOjU5OHB4O2hlaWdodDo0MzFweDtiYWNrZ3JvdW5kOiNGRkZGRkY7IiB2ZXJzaW9uPSIxLjEiIHZpZXdCb3g9IjAgMCA1OTggNDMxIiB3aWR0aD0iNTk4cHgiIHpvb21BbmRQYW49Im1hZ25pZnkiPjxkZWZzLz48Zz48cmVjdCBmaWxsPSJub25lIiBoZWlnaHQ9IjE0MS4zNDM4IiBzdHlsZT0ic3Ryb2tlOiMwMDAwMDA7c3Ryb2tlLXdpZHRoOjEuNTsiIHdpZHRoPSI0MjkiIHg9IjEwIiB5PSIxOTMuNzI2NiIvPjxsaW5lIHN0eWxlPSJzdHJva2U6IzE4MTgxODtzdHJva2Utd2lkdGg6MC41O3N0cm9rZS1kYXNoYXJyYXk6NS4wLDUuMDsiIHgxPSI0NCIgeDI9IjQ0IiB5MT0iNzkuOTg0NCIgeTI9IjM1Mi4wNzAzIi8+PGxpbmUgc3R5bGU9InN0cm9rZTojMTgxODE4O3N0cm9rZS13aWR0aDowLjU7c3Ryb2tlLWRhc2hhcnJheTo1LjAsNS4wOyIgeDE9IjIyNy41IiB4Mj0iMjI3LjUiIHkxPSI3OS45ODQ0IiB5Mj0iMzUyLjA3MDMiLz48bGluZSBzdHlsZT0ic3Ryb2tlOiMxODE4MTg7c3Ryb2tlLXdpZHRoOjAuNTtzdHJva2UtZGFzaGFycmF5OjUuMCw1LjA7IiB4MT0iMzk0IiB4Mj0iMzk0IiB5MT0iNzkuOTg0NCIgeTI9IjM1Mi4wNzAzIi8+PHRleHQgZmlsbD0iIzAwMDAwMCIgZm9udC1mYW1pbHk9InNhbnMtc2VyaWYiIGZvbnQtc2l6ZT0iMTQiIGxlbmd0aEFkanVzdD0ic3BhY2luZyIgdGV4dExlbmd0aD0iNDIiIHg9IjIwIiB5PSI3OC4yMzQ0Ij5QbGF5ZXI8L3RleHQ+PGVsbGlwc2UgY3g9IjQ0IiBjeT0iMTMuNSIgZmlsbD0iI0UyRTJGMCIgcng9IjgiIHJ5PSI4IiBzdHlsZT0ic3Ryb2tlOiMxODE4MTg7c3Ryb2tlLXdpZHRoOjAuNTsiLz48cGF0aCBkPSJNNDQsMjEuNSBMNDQsNDguNSBNMzEsMjkuNSBMNTcsMjkuNSBNNDQsNDguNSBMMzEsNjMuNSBNNDQsNDguNSBMNTcsNjMuNSAiIGZpbGw9Im5vbmUiIHN0eWxlPSJzdHJva2U6IzE4MTgxODtzdHJva2Utd2lkdGg6MC41OyIvPjx0ZXh0IGZpbGw9IiMwMDAwMDAiIGZvbnQtZmFtaWx5PSJzYW5zLXNlcmlmIiBmb250LXNpemU9IjE0IiBsZW5ndGhBZGp1c3Q9InNwYWNpbmciIHRleHRMZW5ndGg9IjQyIiB4PSIyMCIgeT0iMzY0LjMwNDciPlBsYXllcjwvdGV4dD48ZWxsaXBzZSBjeD0iNDQiIGN5PSIzNzQuNTU0NyIgZmlsbD0iI0UyRTJGMCIgcng9IjgiIHJ5PSI4IiBzdHlsZT0ic3Ryb2tlOiMxODE4MTg7c3Ryb2tlLXdpZHRoOjAuNTsiLz48cGF0aCBkPSJNNDQsMzgyLjU1NDcgTDQ0LDQwOS41NTQ3IE0zMSwzOTAuNTU0NyBMNTcsMzkwLjU1NDcgTTQ0LDQwOS41NTQ3IEwzMSw0MjQuNTU0NyBNNDQsNDA5LjU1NDcgTDU3LDQyNC41NTQ3ICIgZmlsbD0ibm9uZSIgc3R5bGU9InN0cm9rZTojMTgxODE4O3N0cm9rZS13aWR0aDowLjU7Ii8+PHJlY3QgZmlsbD0iI0UyRTJGMCIgaGVpZ2h0PSIyOC45ODQ0IiByeD0iMi41IiByeT0iMi41IiBzdHlsZT0ic3Ryb2tlOiMxODE4MTg7c3Ryb2tlLXdpZHRoOjAuNTsiIHdpZHRoPSI3NyIgeD0iMTg5LjUiIHk9IjUwIi8+PHRleHQgZmlsbD0iIzAwMDAwMCIgZm9udC1mYW1pbHk9InNhbnMtc2VyaWYiIGZvbnQtc2l6ZT0iMTQiIGxlbmd0aEFkanVzdD0ic3BhY2luZyIgdGV4dExlbmd0aD0iNjMiIHg9IjE5Ni41IiB5PSI3MC4yMzQ0Ij5Qb2tlck1hdGU8L3RleHQ+PHJlY3QgZmlsbD0iI0UyRTJGMCIgaGVpZ2h0PSIyOC45ODQ0IiByeD0iMi41IiByeT0iMi41IiBzdHlsZT0ic3Ryb2tlOiMxODE4MTg7c3Ryb2tlLXdpZHRoOjAuNTsiIHdpZHRoPSI3NyIgeD0iMTg5LjUiIHk9IjM1MS4wNzAzIi8+PHRleHQgZmlsbD0iIzAwMDAwMCIgZm9udC1mYW1pbHk9InNhbnMtc2VyaWYiIGZvbnQtc2l6ZT0iMTQiIGxlbmd0aEFkanVzdD0ic3BhY2luZyIgdGV4dExlbmd0aD0iNjMiIHg9IjE5Ni41IiB5PSIzNzEuMzA0NyI+UG9rZXJNYXRlPC90ZXh0PjxyZWN0IGZpbGw9IiNFMkUyRjAiIGhlaWdodD0iMjguOTg0NCIgcng9IjIuNSIgcnk9IjIuNSIgc3R5bGU9InN0cm9rZTojMTgxODE4O3N0cm9rZS13aWR0aDowLjU7IiB3aWR0aD0iNzAiIHg9IjM1OSIgeT0iNTAiLz48dGV4dCBmaWxsPSIjMDAwMDAwIiBmb250LWZhbWlseT0ic2Fucy1zZXJpZiIgZm9udC1zaXplPSIxNCIgbGVuZ3RoQWRqdXN0PSJzcGFjaW5nIiB0ZXh0TGVuZ3RoPSI1NiIgeD0iMzY2IiB5PSI3MC4yMzQ0Ij5EYXRhQmFzZTwvdGV4dD48cmVjdCBmaWxsPSIjRTJFMkYwIiBoZWlnaHQ9IjI4Ljk4NDQiIHJ4PSIyLjUiIHJ5PSIyLjUiIHN0eWxlPSJzdHJva2U6IzE4MTgxODtzdHJva2Utd2lkdGg6MC41OyIgd2lkdGg9IjcwIiB4PSIzNTkiIHk9IjM1MS4wNzAzIi8+PHRleHQgZmlsbD0iIzAwMDAwMCIgZm9udC1mYW1pbHk9InNhbnMtc2VyaWYiIGZvbnQtc2l6ZT0iMTQiIGxlbmd0aEFkanVzdD0ic3BhY2luZyIgdGV4dExlbmd0aD0iNTYiIHg9IjM2NiIgeT0iMzcxLjMwNDciPkRhdGFCYXNlPC90ZXh0Pjxwb2x5Z29uIGZpbGw9IiMxODE4MTgiIHBvaW50cz0iMjE2LDEwNS44OTg0LDIyNiwxMDkuODk4NCwyMTYsMTEzLjg5ODQsMjIwLDEwOS44OTg0IiBzdHlsZT0ic3Ryb2tlOiMxODE4MTg7c3Ryb2tlLXdpZHRoOjEuMDsiLz48bGluZSBzdHlsZT0ic3Ryb2tlOiMxODE4MTg7c3Ryb2tlLXdpZHRoOjEuMDsiIHgxPSI0NCIgeDI9IjIyMiIgeTE9IjEwOS44OTg0IiB5Mj0iMTA5Ljg5ODQiLz48dGV4dCBmaWxsPSIjMDAwMDAwIiBmb250LWZhbWlseT0ic2Fucy1zZXJpZiIgZm9udC1zaXplPSIxMyIgbGVuZ3RoQWRqdXN0PSJzcGFjaW5nIiB0ZXh0TGVuZ3RoPSIxNjAiIHg9IjUxIiB5PSIxMDYuMjczNCI+Q2xpY2sgIldhdGNoIFN0YXRpc3RpY3MiPC90ZXh0Pjxwb2x5Z29uIGZpbGw9IiMxODE4MTgiIHBvaW50cz0iMzgyLDEzMy44MTI1LDM5MiwxMzcuODEyNSwzODIsMTQxLjgxMjUsMzg2LDEzNy44MTI1IiBzdHlsZT0ic3Ryb2tlOiMxODE4MTg7c3Ryb2tlLXdpZHRoOjEuMDsiLz48bGluZSBzdHlsZT0ic3Ryb2tlOiMxODE4MTg7c3Ryb2tlLXdpZHRoOjEuMDsiIHgxPSIyMjgiIHgyPSIzODgiIHkxPSIxMzcuODEyNSIgeTI9IjEzNy44MTI1Ii8+PHRleHQgZmlsbD0iIzAwMDAwMCIgZm9udC1mYW1pbHk9InNhbnMtc2VyaWYiIGZvbnQtc2l6ZT0iMTMiIGxlbmd0aEFkanVzdD0ic3BhY2luZyIgdGV4dExlbmd0aD0iMTQyIiB4PSIyMzUiIHk9IjEzNC4xODc1Ij5SZXF1ZXN0IHN0YXRzIGZyb20gREI8L3RleHQ+PGxpbmUgc3R5bGU9InN0cm9rZTojMTgxODE4O3N0cm9rZS13aWR0aDoxLjA7IiB4MT0iMzk0IiB4Mj0iNDM2IiB5MT0iMTY1LjcyNjYiIHkyPSIxNjUuNzI2NiIvPjxsaW5lIHN0eWxlPSJzdHJva2U6IzE4MTgxODtzdHJva2Utd2lkdGg6MS4wOyIgeDE9IjQzNiIgeDI9IjQzNiIgeTE9IjE2NS43MjY2IiB5Mj0iMTc4LjcyNjYiLz48bGluZSBzdHlsZT0ic3Ryb2tlOiMxODE4MTg7c3Ryb2tlLXdpZHRoOjEuMDsiIHgxPSIzOTUiIHgyPSI0MzYiIHkxPSIxNzguNzI2NiIgeTI9IjE3OC43MjY2Ii8+PHBvbHlnb24gZmlsbD0iIzE4MTgxOCIgcG9pbnRzPSI0MDUsMTc0LjcyNjYsMzk1LDE3OC43MjY2LDQwNSwxODIuNzI2Niw0MDEsMTc4LjcyNjYiIHN0eWxlPSJzdHJva2U6IzE4MTgxODtzdHJva2Utd2lkdGg6MS4wOyIvPjx0ZXh0IGZpbGw9IiMwMDAwMDAiIGZvbnQtZmFtaWx5PSJzYW5zLXNlcmlmIiBmb250LXNpemU9IjEzIiBsZW5ndGhBZGp1c3Q9InNwYWNpbmciIHRleHRMZW5ndGg9IjE5MCIgeD0iNDAxIiB5PSIxNjIuMTAxNiI+Q2hlY2sgaWYgcGxheWVyIGV4aXN0cyBpbiBEQjwvdGV4dD48cGF0aCBkPSJNMTAsMTkzLjcyNjYgTDc0LDE5My43MjY2IEw3NCwxOTkuNjQwNiBMNjQsMjA5LjY0MDYgTDEwLDIwOS42NDA2IEwxMCwxOTMuNzI2NiAiIGZpbGw9IiNFRUVFRUUiIHN0eWxlPSJzdHJva2U6IzAwMDAwMDtzdHJva2Utd2lkdGg6MS41OyIvPjxyZWN0IGZpbGw9Im5vbmUiIGhlaWdodD0iMTQxLjM0MzgiIHN0eWxlPSJzdHJva2U6IzAwMDAwMDtzdHJva2Utd2lkdGg6MS41OyIgd2lkdGg9IjQyOSIgeD0iMTAiIHk9IjE5My43MjY2Ii8+PHRleHQgZmlsbD0iIzAwMDAwMCIgZm9udC1mYW1pbHk9InNhbnMtc2VyaWYiIGZvbnQtc2l6ZT0iMTMiIGZvbnQtd2VpZ2h0PSJib2xkIiBsZW5ndGhBZGp1c3Q9InNwYWNpbmciIHRleHRMZW5ndGg9IjE5IiB4PSIyNSIgeT0iMjA3LjAxNTYiPmFsdDwvdGV4dD48dGV4dCBmaWxsPSIjMDAwMDAwIiBmb250LWZhbWlseT0ic2Fucy1zZXJpZiIgZm9udC1zaXplPSIxMSIgZm9udC13ZWlnaHQ9ImJvbGQiIGxlbmd0aEFkanVzdD0ic3BhY2luZyIgdGV4dExlbmd0aD0iMTkyIiB4PSI4OSIgeT0iMjA2LjEyNSI+W1BsYXllciBpcyBzaWduZWQgaW4gYW5kIGV4aXN0c108L3RleHQ+PHBvbHlnb24gZmlsbD0iIzE4MTgxOCIgcG9pbnRzPSIyMzksMjI1LjU1NDcsMjI5LDIyOS41NTQ3LDIzOSwyMzMuNTU0NywyMzUsMjI5LjU1NDciIHN0eWxlPSJzdHJva2U6IzE4MTgxODtzdHJva2Utd2lkdGg6MS4wOyIvPjxsaW5lIHN0eWxlPSJzdHJva2U6IzE4MTgxODtzdHJva2Utd2lkdGg6MS4wOyIgeDE9IjIzMyIgeDI9IjM5MyIgeTE9IjIyOS41NTQ3IiB5Mj0iMjI5LjU1NDciLz48dGV4dCBmaWxsPSIjMDAwMDAwIiBmb250LWZhbWlseT0ic2Fucy1zZXJpZiIgZm9udC1zaXplPSIxMyIgbGVuZ3RoQWRqdXN0PSJzcGFjaW5nIiB0ZXh0TGVuZ3RoPSIxNDEiIHg9IjI0NSIgeT0iMjI1LjkyOTciPlNlbmRzIHN0YXRpc3RpY3MgZGF0YTwvdGV4dD48cG9seWdvbiBmaWxsPSIjMTgxODE4IiBwb2ludHM9IjU1LDI1My40Njg4LDQ1LDI1Ny40Njg4LDU1LDI2MS40Njg4LDUxLDI1Ny40Njg4IiBzdHlsZT0ic3Ryb2tlOiMxODE4MTg7c3Ryb2tlLXdpZHRoOjEuMDsiLz48bGluZSBzdHlsZT0ic3Ryb2tlOiMxODE4MTg7c3Ryb2tlLXdpZHRoOjEuMDsiIHgxPSI0OSIgeDI9IjIyNyIgeTE9IjI1Ny40Njg4IiB5Mj0iMjU3LjQ2ODgiLz48dGV4dCBmaWxsPSIjMDAwMDAwIiBmb250LWZhbWlseT0ic2Fucy1zZXJpZiIgZm9udC1zaXplPSIxMyIgbGVuZ3RoQWRqdXN0PSJzcGFjaW5nIiB0ZXh0TGVuZ3RoPSI2NyIgeD0iNjEiIHk9IjI1My44NDM4Ij5TaG93IHN0YXRzPC90ZXh0PjxsaW5lIHN0eWxlPSJzdHJva2U6IzAwMDAwMDtzdHJva2Utd2lkdGg6MS4wO3N0cm9rZS1kYXNoYXJyYXk6Mi4wLDIuMDsiIHgxPSIxMCIgeDI9IjQzOSIgeTE9IjI2Ni40Njg4IiB5Mj0iMjY2LjQ2ODgiLz48dGV4dCBmaWxsPSIjMDAwMDAwIiBmb250LWZhbWlseT0ic2Fucy1zZXJpZiIgZm9udC1zaXplPSIxMSIgZm9udC13ZWlnaHQ9ImJvbGQiIGxlbmd0aEFkanVzdD0ic3BhY2luZyIgdGV4dExlbmd0aD0iMjU4IiB4PSIxNSIgeT0iMjc2Ljg2NzIiPltQbGF5ZXIgaXMgbm90IHNpZ25lZCBpbiBvciBkb3Nlbid0IGV4aXN0c108L3RleHQ+PHBvbHlnb24gZmlsbD0iIzE4MTgxOCIgcG9pbnRzPSIyMzksMjk1LjE1NjMsMjI5LDI5OS4xNTYzLDIzOSwzMDMuMTU2MywyMzUsMjk5LjE1NjMiIHN0eWxlPSJzdHJva2U6IzE4MTgxODtzdHJva2Utd2lkdGg6MS4wOyIvPjxsaW5lIHN0eWxlPSJzdHJva2U6IzE4MTgxODtzdHJva2Utd2lkdGg6MS4wOyIgeDE9IjIzMyIgeDI9IjM5MyIgeTE9IjI5OS4xNTYzIiB5Mj0iMjk5LjE1NjMiLz48dGV4dCBmaWxsPSIjMDAwMDAwIiBmb250LWZhbWlseT0ic2Fucy1zZXJpZiIgZm9udC1zaXplPSIxMyIgbGVuZ3RoQWRqdXN0PSJzcGFjaW5nIiB0ZXh0TGVuZ3RoPSI2OCIgeD0iMjQ1IiB5PSIyOTUuNTMxMyI+U2VuZHMgJy0xJzwvdGV4dD48cG9seWdvbiBmaWxsPSIjMTgxODE4IiBwb2ludHM9IjU1LDMyMy4wNzAzLDQ1LDMyNy4wNzAzLDU1LDMzMS4wNzAzLDUxLDMyNy4wNzAzIiBzdHlsZT0ic3Ryb2tlOiMxODE4MTg7c3Ryb2tlLXdpZHRoOjEuMDsiLz48bGluZSBzdHlsZT0ic3Ryb2tlOiMxODE4MTg7c3Ryb2tlLXdpZHRoOjEuMDsiIHgxPSI0OSIgeDI9IjIyNyIgeTE9IjMyNy4wNzAzIiB5Mj0iMzI3LjA3MDMiLz48dGV4dCBmaWxsPSIjMDAwMDAwIiBmb250LWZhbWlseT0ic2Fucy1zZXJpZiIgZm9udC1zaXplPSIxMyIgbGVuZ3RoQWRqdXN0PSJzcGFjaW5nIiB0ZXh0TGVuZ3RoPSIxMjQiIHg9IjYxIiB5PSIzMjMuNDQ1MyI+U2hvdyBlcnJvciBtZXNzYWdlPC90ZXh0PjwhLS1TUkM9W1pQMG5aeThtMzhMdF9tZ0JmSEMzQXlDRFhISzltTjJwaHA0cWVhcndpUWt4X2xqcEtZZldFOGJDYmp4dGRmejNaU1E0bnV1Y0phWTJldDIyV1BCd25XeUs1OF9ubmtiMG9iY0xJUEp4NXRyRklaTDlhUHRETnBPM0dDeDF6U1ZUaVNMVHZ2aVJoWnY5Y25SRklraDU4Y0c1Q3YzSG5SdDU0dC1GQjhmWWRFMGJuSHh0RElwd0F4amhzT0J6MU9WdjFsd3JQNDRWaWVLd05NeHByanZWMHhpaUtOMXQ0RDNVU185SS1DcDFJTWFtRG9yR2VILUR5djU2amw1ZGhXaFNNU1haT09ad2pESi1zS05YS0VieGt3bHJmbGZfOFFUYVdKc0JxOUtCMWtSdzBtMDBdLS0+PC9nPjwvc3ZnPg==;" vertex="1" parent="1">
            <mxGeometry x="126" y="450" width="598" height="431" as="geometry" />
          </mxCell>
        </UserObject>
        <mxCell id="JsT6jiiGknChtP9WsYum-3" value="&lt;b&gt;&lt;u&gt;&lt;font style=&quot;font-size: 36px;&quot;&gt;Sequence Diagram: Pause an ongoing game&lt;/font&gt;&lt;/u&gt;&lt;/b&gt;" style="text;html=1;align=center;verticalAlign=middle;whiteSpace=wrap;rounded=0;" vertex="1" parent="1">
          <mxGeometry x="10" width="830" height="30" as="geometry" />
        </mxCell>
        <mxCell id="JsT6jiiGknChtP9WsYum-4" value="&lt;b&gt;&lt;u&gt;&lt;font style=&quot;font-size: 36px;&quot;&gt;Sequence Diagram: Watch statistics&lt;/font&gt;&lt;/u&gt;&lt;/b&gt;" style="text;html=1;align=center;verticalAlign=middle;whiteSpace=wrap;rounded=0;" vertex="1" parent="1">
          <mxGeometry x="10" y="410" width="830" height="30" as="geometry" />
        </mxCell>
        <mxCell id="JsT6jiiGknChtP9WsYum-5" value="&lt;b&gt;&lt;u&gt;&lt;font style=&quot;font-size: 36px;&quot;&gt;Sequence Diagram: Settle in-game debts&lt;/font&gt;&lt;/u&gt;&lt;/b&gt;" style="text;html=1;align=center;verticalAlign=middle;whiteSpace=wrap;rounded=0;" vertex="1" parent="1">
          <mxGeometry x="10" y="890" width="830" height="30" as="geometry" />
        </mxCell>
        <UserObject label="" plantUmlData="{&quot;data&quot;:&quot;@startuml\nactor User as user\nparticipant PokerMate as system\nparticipant DataBase as database\n\nuser -&gt; system: Start \&quot;Calculate Who Owes Who\&quot;\n\ngroup Extract Input Data\n    system -&gt; user: Request input data (string or game data)\n    user -&gt; system: Provide input data\n    system -&gt; system: Validate input string\n    alt Input string is valid\n        system -&gt; system: Proceed to next step\n    else Input string is invalid\n        system -&gt; user: Notify user to correct data\n        user -&gt; system: Provide corrected input\n        system -&gt; system: Revalidate input\n    end\nend\n\ngroup Organize Data\n    system -&gt; system: Create dictionary with player stats\n    system -&gt; system: Check if total BuyIn matches total BuyOut\n    alt Totals match\n        system -&gt; system: Proceed to next step\n    else Totals mismatch\n        system -&gt; user: Suggest solutions for fixing discrepancies\n        user -&gt; system: Provide updated data\n        system -&gt; system: Recheck totals\n    end\nend\n\ngroup Prepare for Settling Debts\n    system -&gt; system: Create and sort LosersList and WinnersList\n    system -&gt; system: Loop through LosersList and WinnersList\n    loop Process Lists\n        system -&gt; system: Compare loserPayAmount and winnerPayAmount\n        alt Exact match\n            system -&gt; user: Print payment statement\n            system -&gt; system: Mark loser and winner as \&quot;paid\&quot;\n            system -&gt; system: Remove them from respective lists\n        else Not exact match\n            system -&gt; system: Continue until all winners and losers checked against each other\n        end\n    end\n\nalt DFS Perfect Matches\n    system -&gt; system: Loop through winners\n    system -&gt; system: Use DFS to find matching combinations\n    alt Perfect match found\n        system -&gt; user: Print settlement details\n        system -&gt; system: Update LosersList and WinnersList\n    else No match found\n        system -&gt; system: Proceed to next winner\n    end\n    system -&gt; system: Repeat until all winners are processed\nend\n\ngroup Prioritize and Finalize\n    system -&gt; system: Prioritize favored players\n    system -&gt; system: Sort remaining players\n    loop Iterate over Losers and Winners\n        system -&gt; system: Transfer money based on conditions\n        system -&gt; system: Update lists and balances\n    end\n    system -&gt; user: Return final transaction details\nend\nend\n\ngroup Save Data\n    user -&gt; system: Choose to save the data\n    system -&gt; system: Check how \&quot;Calculate Who Owes Whom\&quot; was accessed\n    alt Accessed from main screen\n        system -&gt; user: Request additional information (Game Date, Location)\n        user -&gt; system: Provide Game Date and Location\n    else Accessed after a game in the app\n        system -&gt; system: Use existing game details\n    end\n    system -&gt; database: Save the game data and debts\n    database -&gt; system: Confirm data saved\n    system -&gt; user: Notify that data is saved\nend\n\n\n@enduml\n&quot;,&quot;format&quot;:&quot;svg&quot;}" id="JsT6jiiGknChtP9WsYum-6">
          <mxCell style="shape=image;noLabel=1;verticalAlign=top;aspect=fixed;imageAspect=0;image=data:image/svg+xml,PD94bWwgdmVyc2lvbj0iMS4wIiBlbmNvZGluZz0idXMtYXNjaWkiIHN0YW5kYWxvbmU9Im5vIj8+PHN2ZyB4bWxucz0iaHR0cDovL3d3dy53My5vcmcvMjAwMC9zdmciIHhtbG5zOnhsaW5rPSJodHRwOi8vd3d3LnczLm9yZy8xOTk5L3hsaW5rIiBjb250ZW50U3R5bGVUeXBlPSJ0ZXh0L2NzcyIgaGVpZ2h0PSIyMDY1cHgiIHByZXNlcnZlQXNwZWN0UmF0aW89Im5vbmUiIHN0eWxlPSJ3aWR0aDo5MjhweDtoZWlnaHQ6MjA2NXB4O2JhY2tncm91bmQ6I0ZGRkZGRjsiIHZlcnNpb249IjEuMSIgdmlld0JveD0iMCAwIDkyOCAyMDY1IiB3aWR0aD0iOTI4cHgiIHpvb21BbmRQYW49Im1hZ25pZnkiPjxkZWZzLz48Zz48cmVjdCBmaWxsPSJub25lIiBoZWlnaHQ9IjI5NCIgc3R5bGU9InN0cm9rZTojMDAwMDAwO3N0cm9rZS13aWR0aDoxLjU7IiB3aWR0aD0iNTc0IiB4PSIyMCIgeT0iMTI0Ljg5ODQiLz48cmVjdCBmaWxsPSJub25lIiBoZWlnaHQ9IjE2Ny4zNDM4IiBzdHlsZT0ic3Ryb2tlOiMwMDAwMDA7c3Ryb2tlLXdpZHRoOjEuNTsiIHdpZHRoPSI1NTQiIHg9IjMwIiB5PSIyNDQuNTU0NyIvPjxyZWN0IGZpbGw9Im5vbmUiIGhlaWdodD0iMjc5LjA4NTkiIHN0eWxlPSJzdHJva2U6IzAwMDAwMDtzdHJva2Utd2lkdGg6MS41OyIgd2lkdGg9IjcwMiIgeD0iMjAiIHk9IjQzMi44OTg0Ii8+PHJlY3QgZmlsbD0ibm9uZSIgaGVpZ2h0PSIxNjcuMzQzOCIgc3R5bGU9InN0cm9rZTojMDAwMDAwO3N0cm9rZS13aWR0aDoxLjU7IiB3aWR0aD0iNTU0IiB4PSIzMCIgeT0iNTM3LjY0MDYiLz48cmVjdCBmaWxsPSJub25lIiBoZWlnaHQ9IjkyMC4zOTg0IiBzdHlsZT0ic3Ryb2tlOiMwMDAwMDA7c3Ryb2tlLXdpZHRoOjEuNTsiIHdpZHRoPSI4OTIiIHg9IjEwIiB5PSI3MjUuOTg0NCIvPjxyZWN0IGZpbGw9Im5vbmUiIGhlaWdodD0iMjUxLjE3MTkiIHN0eWxlPSJzdHJva2U6IzAwMDAwMDtzdHJva2Utd2lkdGg6MS41OyIgd2lkdGg9Ijg3MiIgeD0iMjAiIHk9IjgzMC43MjY2Ii8+PHJlY3QgZmlsbD0ibm9uZSIgaGVpZ2h0PSIxODAuMzQzOCIgc3R5bGU9InN0cm9rZTojMDAwMDAwO3N0cm9rZS13aWR0aDoxLjU7IiB3aWR0aD0iODUyIiB4PSIzMCIgeT0iODk0LjU1NDciLz48cmVjdCBmaWxsPSJub25lIiBoZWlnaHQ9IjI5Mi4wODU5IiBzdHlsZT0ic3Ryb2tlOiMwMDAwMDA7c3Ryb2tlLXdpZHRoOjEuNTsiIHdpZHRoPSI2ODUiIHg9IjIwIiB5PSIxMDk1Ljg5ODQiLz48cmVjdCBmaWxsPSJub25lIiBoZWlnaHQ9IjEzOS40Mjk3IiBzdHlsZT0ic3Ryb2tlOiMwMDAwMDA7c3Ryb2tlLXdpZHRoOjEuNTsiIHdpZHRoPSI2NDIiIHg9IjMwIiB5PSIxMjAwLjY0MDYiLz48cmVjdCBmaWxsPSJub25lIiBoZWlnaHQ9IjIzNy4zOTg0IiBzdHlsZT0ic3Ryb2tlOiMwMDAwMDA7c3Ryb2tlLXdpZHRoOjEuNTsiIHdpZHRoPSI2NTkiIHg9IjMwIiB5PSIxNDAxLjk4NDQiLz48cmVjdCBmaWxsPSJub25lIiBoZWlnaHQ9Ijk3Ljc0MjIiIHN0eWxlPSJzdHJva2U6IzAwMDAwMDtzdHJva2Utd2lkdGg6MS41OyIgd2lkdGg9IjI5OS41IiB4PSIzNzkuNSIgeT0iMTUwNi43MjY2Ii8+PHJlY3QgZmlsbD0ibm9uZSIgaGVpZ2h0PSIzMDguOTE0MSIgc3R5bGU9InN0cm9rZTojMDAwMDAwO3N0cm9rZS13aWR0aDoxLjU7IiB3aWR0aD0iOTAyIiB4PSIyMCIgeT0iMTY2MC4zODI4Ii8+PHJlY3QgZmlsbD0ibm9uZSIgaGVpZ2h0PSIxMjYuNDI5NyIgc3R5bGU9InN0cm9rZTojMDAwMDAwO3N0cm9rZS13aWR0aDoxLjU7IiB3aWR0aD0iNTg1IiB4PSIzMCIgeT0iMTc1Mi4xMjUiLz48bGluZSBzdHlsZT0ic3Ryb2tlOiMxODE4MTg7c3Ryb2tlLXdpZHRoOjAuNTtzdHJva2UtZGFzaGFycmF5OjUuMCw1LjA7IiB4MT0iNTciIHgyPSI1NyIgeTE9Ijc5Ljk4NDQiIHkyPSIxOTg2LjI5NjkiLz48bGluZSBzdHlsZT0ic3Ryb2tlOiMxODE4MTg7c3Ryb2tlLXdpZHRoOjAuNTtzdHJva2UtZGFzaGFycmF5OjUuMCw1LjA7IiB4MT0iNDI3LjUiIHgyPSI0MjcuNSIgeTE9Ijc5Ljk4NDQiIHkyPSIxOTg2LjI5NjkiLz48bGluZSBzdHlsZT0ic3Ryb2tlOiMxODE4MTg7c3Ryb2tlLXdpZHRoOjAuNTtzdHJva2UtZGFzaGFycmF5OjUuMCw1LjA7IiB4MT0iODc3IiB4Mj0iODc3IiB5MT0iNzkuOTg0NCIgeTI9IjE5ODYuMjk2OSIvPjx0ZXh0IGZpbGw9IiMwMDAwMDAiIGZvbnQtZmFtaWx5PSJzYW5zLXNlcmlmIiBmb250LXNpemU9IjE0IiBsZW5ndGhBZGp1c3Q9InNwYWNpbmciIHRleHRMZW5ndGg9IjI4IiB4PSI0MCIgeT0iNzguMjM0NCI+VXNlcjwvdGV4dD48ZWxsaXBzZSBjeD0iNTciIGN5PSIxMy41IiBmaWxsPSIjRTJFMkYwIiByeD0iOCIgcnk9IjgiIHN0eWxlPSJzdHJva2U6IzE4MTgxODtzdHJva2Utd2lkdGg6MC41OyIvPjxwYXRoIGQ9Ik01NywyMS41IEw1Nyw0OC41IE00NCwyOS41IEw3MCwyOS41IE01Nyw0OC41IEw0NCw2My41IE01Nyw0OC41IEw3MCw2My41ICIgZmlsbD0ibm9uZSIgc3R5bGU9InN0cm9rZTojMTgxODE4O3N0cm9rZS13aWR0aDowLjU7Ii8+PHRleHQgZmlsbD0iIzAwMDAwMCIgZm9udC1mYW1pbHk9InNhbnMtc2VyaWYiIGZvbnQtc2l6ZT0iMTQiIGxlbmd0aEFkanVzdD0ic3BhY2luZyIgdGV4dExlbmd0aD0iMjgiIHg9IjQwIiB5PSIxOTk4LjUzMTMiPlVzZXI8L3RleHQ+PGVsbGlwc2UgY3g9IjU3IiBjeT0iMjAwOC43ODEzIiBmaWxsPSIjRTJFMkYwIiByeD0iOCIgcnk9IjgiIHN0eWxlPSJzdHJva2U6IzE4MTgxODtzdHJva2Utd2lkdGg6MC41OyIvPjxwYXRoIGQ9Ik01NywyMDE2Ljc4MTMgTDU3LDIwNDMuNzgxMyBNNDQsMjAyNC43ODEzIEw3MCwyMDI0Ljc4MTMgTTU3LDIwNDMuNzgxMyBMNDQsMjA1OC43ODEzIE01NywyMDQzLjc4MTMgTDcwLDIwNTguNzgxMyAiIGZpbGw9Im5vbmUiIHN0eWxlPSJzdHJva2U6IzE4MTgxODtzdHJva2Utd2lkdGg6MC41OyIvPjxyZWN0IGZpbGw9IiNFMkUyRjAiIGhlaWdodD0iMjguOTg0NCIgcng9IjIuNSIgcnk9IjIuNSIgc3R5bGU9InN0cm9rZTojMTgxODE4O3N0cm9rZS13aWR0aDowLjU7IiB3aWR0aD0iNzciIHg9IjM4OS41IiB5PSI1MCIvPjx0ZXh0IGZpbGw9IiMwMDAwMDAiIGZvbnQtZmFtaWx5PSJzYW5zLXNlcmlmIiBmb250LXNpemU9IjE0IiBsZW5ndGhBZGp1c3Q9InNwYWNpbmciIHRleHRMZW5ndGg9IjYzIiB4PSIzOTYuNSIgeT0iNzAuMjM0NCI+UG9rZXJNYXRlPC90ZXh0PjxyZWN0IGZpbGw9IiNFMkUyRjAiIGhlaWdodD0iMjguOTg0NCIgcng9IjIuNSIgcnk9IjIuNSIgc3R5bGU9InN0cm9rZTojMTgxODE4O3N0cm9rZS13aWR0aDowLjU7IiB3aWR0aD0iNzciIHg9IjM4OS41IiB5PSIxOTg1LjI5NjkiLz48dGV4dCBmaWxsPSIjMDAwMDAwIiBmb250LWZhbWlseT0ic2Fucy1zZXJpZiIgZm9udC1zaXplPSIxNCIgbGVuZ3RoQWRqdXN0PSJzcGFjaW5nIiB0ZXh0TGVuZ3RoPSI2MyIgeD0iMzk2LjUiIHk9IjIwMDUuNTMxMyI+UG9rZXJNYXRlPC90ZXh0PjxyZWN0IGZpbGw9IiNFMkUyRjAiIGhlaWdodD0iMjguOTg0NCIgcng9IjIuNSIgcnk9IjIuNSIgc3R5bGU9InN0cm9rZTojMTgxODE4O3N0cm9rZS13aWR0aDowLjU7IiB3aWR0aD0iNzAiIHg9Ijg0MiIgeT0iNTAiLz48dGV4dCBmaWxsPSIjMDAwMDAwIiBmb250LWZhbWlseT0ic2Fucy1zZXJpZiIgZm9udC1zaXplPSIxNCIgbGVuZ3RoQWRqdXN0PSJzcGFjaW5nIiB0ZXh0TGVuZ3RoPSI1NiIgeD0iODQ5IiB5PSI3MC4yMzQ0Ij5EYXRhQmFzZTwvdGV4dD48cmVjdCBmaWxsPSIjRTJFMkYwIiBoZWlnaHQ9IjI4Ljk4NDQiIHJ4PSIyLjUiIHJ5PSIyLjUiIHN0eWxlPSJzdHJva2U6IzE4MTgxODtzdHJva2Utd2lkdGg6MC41OyIgd2lkdGg9IjcwIiB4PSI4NDIiIHk9IjE5ODUuMjk2OSIvPjx0ZXh0IGZpbGw9IiMwMDAwMDAiIGZvbnQtZmFtaWx5PSJzYW5zLXNlcmlmIiBmb250LXNpemU9IjE0IiBsZW5ndGhBZGp1c3Q9InNwYWNpbmciIHRleHRMZW5ndGg9IjU2IiB4PSI4NDkiIHk9IjIwMDUuNTMxMyI+RGF0YUJhc2U8L3RleHQ+PHBvbHlnb24gZmlsbD0iIzE4MTgxOCIgcG9pbnRzPSI0MTYsMTA1Ljg5ODQsNDI2LDEwOS44OTg0LDQxNiwxMTMuODk4NCw0MjAsMTA5Ljg5ODQiIHN0eWxlPSJzdHJva2U6IzE4MTgxODtzdHJva2Utd2lkdGg6MS4wOyIvPjxsaW5lIHN0eWxlPSJzdHJva2U6IzE4MTgxODtzdHJva2Utd2lkdGg6MS4wOyIgeDE9IjU3IiB4Mj0iNDIyIiB5MT0iMTA5Ljg5ODQiIHkyPSIxMDkuODk4NCIvPjx0ZXh0IGZpbGw9IiMwMDAwMDAiIGZvbnQtZmFtaWx5PSJzYW5zLXNlcmlmIiBmb250LXNpemU9IjEzIiBsZW5ndGhBZGp1c3Q9InNwYWNpbmciIHRleHRMZW5ndGg9IjIwNCIgeD0iNjQiIHk9IjEwNi4yNzM0Ij5TdGFydCAiQ2FsY3VsYXRlIFdobyBPd2VzIFdobyI8L3RleHQ+PHBhdGggZD0iTTIwLDEyNC44OTg0IEwxODYsMTI0Ljg5ODQgTDE4NiwxMzAuODEyNSBMMTc2LDE0MC44MTI1IEwyMCwxNDAuODEyNSBMMjAsMTI0Ljg5ODQgIiBmaWxsPSIjRUVFRUVFIiBzdHlsZT0ic3Ryb2tlOiMwMDAwMDA7c3Ryb2tlLXdpZHRoOjEuNTsiLz48cmVjdCBmaWxsPSJub25lIiBoZWlnaHQ9IjI5NCIgc3R5bGU9InN0cm9rZTojMDAwMDAwO3N0cm9rZS13aWR0aDoxLjU7IiB3aWR0aD0iNTc0IiB4PSIyMCIgeT0iMTI0Ljg5ODQiLz48dGV4dCBmaWxsPSIjMDAwMDAwIiBmb250LWZhbWlseT0ic2Fucy1zZXJpZiIgZm9udC1zaXplPSIxMyIgZm9udC13ZWlnaHQ9ImJvbGQiIGxlbmd0aEFkanVzdD0ic3BhY2luZyIgdGV4dExlbmd0aD0iMTIxIiB4PSIzNSIgeT0iMTM4LjE4NzUiPkV4dHJhY3QgSW5wdXQgRGF0YTwvdGV4dD48cG9seWdvbiBmaWxsPSIjMTgxODE4IiBwb2ludHM9IjY4LDE1Ni43MjY2LDU4LDE2MC43MjY2LDY4LDE2NC43MjY2LDY0LDE2MC43MjY2IiBzdHlsZT0ic3Ryb2tlOiMxODE4MTg7c3Ryb2tlLXdpZHRoOjEuMDsiLz48bGluZSBzdHlsZT0ic3Ryb2tlOiMxODE4MTg7c3Ryb2tlLXdpZHRoOjEuMDsiIHgxPSI2MiIgeDI9IjQyNyIgeTE9IjE2MC43MjY2IiB5Mj0iMTYwLjcyNjYiLz48dGV4dCBmaWxsPSIjMDAwMDAwIiBmb250LWZhbWlseT0ic2Fucy1zZXJpZiIgZm9udC1zaXplPSIxMyIgbGVuZ3RoQWRqdXN0PSJzcGFjaW5nIiB0ZXh0TGVuZ3RoPSIyNzAiIHg9Ijc0IiB5PSIxNTcuMTAxNiI+UmVxdWVzdCBpbnB1dCBkYXRhIChzdHJpbmcgb3IgZ2FtZSBkYXRhKTwvdGV4dD48cG9seWdvbiBmaWxsPSIjMTgxODE4IiBwb2ludHM9IjQxNiwxODQuNjQwNiw0MjYsMTg4LjY0MDYsNDE2LDE5Mi42NDA2LDQyMCwxODguNjQwNiIgc3R5bGU9InN0cm9rZTojMTgxODE4O3N0cm9rZS13aWR0aDoxLjA7Ii8+PGxpbmUgc3R5bGU9InN0cm9rZTojMTgxODE4O3N0cm9rZS13aWR0aDoxLjA7IiB4MT0iNTciIHgyPSI0MjIiIHkxPSIxODguNjQwNiIgeTI9IjE4OC42NDA2Ii8+PHRleHQgZmlsbD0iIzAwMDAwMCIgZm9udC1mYW1pbHk9InNhbnMtc2VyaWYiIGZvbnQtc2l6ZT0iMTMiIGxlbmd0aEFkanVzdD0ic3BhY2luZyIgdGV4dExlbmd0aD0iMTIyIiB4PSI2NCIgeT0iMTg1LjAxNTYiPlByb3ZpZGUgaW5wdXQgZGF0YTwvdGV4dD48bGluZSBzdHlsZT0ic3Ryb2tlOiMxODE4MTg7c3Ryb2tlLXdpZHRoOjEuMDsiIHgxPSI0MjgiIHgyPSI0NzAiIHkxPSIyMTYuNTU0NyIgeTI9IjIxNi41NTQ3Ii8+PGxpbmUgc3R5bGU9InN0cm9rZTojMTgxODE4O3N0cm9rZS13aWR0aDoxLjA7IiB4MT0iNDcwIiB4Mj0iNDcwIiB5MT0iMjE2LjU1NDciIHkyPSIyMjkuNTU0NyIvPjxsaW5lIHN0eWxlPSJzdHJva2U6IzE4MTgxODtzdHJva2Utd2lkdGg6MS4wOyIgeDE9IjQyOSIgeDI9IjQ3MCIgeTE9IjIyOS41NTQ3IiB5Mj0iMjI5LjU1NDciLz48cG9seWdvbiBmaWxsPSIjMTgxODE4IiBwb2ludHM9IjQzOSwyMjUuNTU0Nyw0MjksMjI5LjU1NDcsNDM5LDIzMy41NTQ3LDQzNSwyMjkuNTU0NyIgc3R5bGU9InN0cm9rZTojMTgxODE4O3N0cm9rZS13aWR0aDoxLjA7Ii8+PHRleHQgZmlsbD0iIzAwMDAwMCIgZm9udC1mYW1pbHk9InNhbnMtc2VyaWYiIGZvbnQtc2l6ZT0iMTMiIGxlbmd0aEFkanVzdD0ic3BhY2luZyIgdGV4dExlbmd0aD0iMTQwIiB4PSI0MzUiIHk9IjIxMi45Mjk3Ij5WYWxpZGF0ZSBpbnB1dCBzdHJpbmc8L3RleHQ+PHBhdGggZD0iTTMwLDI0NC41NTQ3IEw5NCwyNDQuNTU0NyBMOTQsMjUwLjQ2ODggTDg0LDI2MC40Njg4IEwzMCwyNjAuNDY4OCBMMzAsMjQ0LjU1NDcgIiBmaWxsPSIjRUVFRUVFIiBzdHlsZT0ic3Ryb2tlOiMwMDAwMDA7c3Ryb2tlLXdpZHRoOjEuNTsiLz48cmVjdCBmaWxsPSJub25lIiBoZWlnaHQ9IjE2Ny4zNDM4IiBzdHlsZT0ic3Ryb2tlOiMwMDAwMDA7c3Ryb2tlLXdpZHRoOjEuNTsiIHdpZHRoPSI1NTQiIHg9IjMwIiB5PSIyNDQuNTU0NyIvPjx0ZXh0IGZpbGw9IiMwMDAwMDAiIGZvbnQtZmFtaWx5PSJzYW5zLXNlcmlmIiBmb250LXNpemU9IjEzIiBmb250LXdlaWdodD0iYm9sZCIgbGVuZ3RoQWRqdXN0PSJzcGFjaW5nIiB0ZXh0TGVuZ3RoPSIxOSIgeD0iNDUiIHk9IjI1Ny44NDM4Ij5hbHQ8L3RleHQ+PHRleHQgZmlsbD0iIzAwMDAwMCIgZm9udC1mYW1pbHk9InNhbnMtc2VyaWYiIGZvbnQtc2l6ZT0iMTEiIGZvbnQtd2VpZ2h0PSJib2xkIiBsZW5ndGhBZGp1c3Q9InNwYWNpbmciIHRleHRMZW5ndGg9IjEzOCIgeD0iMTA5IiB5PSIyNTYuOTUzMSI+W0lucHV0IHN0cmluZyBpcyB2YWxpZF08L3RleHQ+PGxpbmUgc3R5bGU9InN0cm9rZTojMTgxODE4O3N0cm9rZS13aWR0aDoxLjA7IiB4MT0iNDI4IiB4Mj0iNDcwIiB5MT0iMjgwLjM4MjgiIHkyPSIyODAuMzgyOCIvPjxsaW5lIHN0eWxlPSJzdHJva2U6IzE4MTgxODtzdHJva2Utd2lkdGg6MS4wOyIgeDE9IjQ3MCIgeDI9IjQ3MCIgeTE9IjI4MC4zODI4IiB5Mj0iMjkzLjM4MjgiLz48bGluZSBzdHlsZT0ic3Ryb2tlOiMxODE4MTg7c3Ryb2tlLXdpZHRoOjEuMDsiIHgxPSI0MjkiIHgyPSI0NzAiIHkxPSIyOTMuMzgyOCIgeTI9IjI5My4zODI4Ii8+PHBvbHlnb24gZmlsbD0iIzE4MTgxOCIgcG9pbnRzPSI0MzksMjg5LjM4MjgsNDI5LDI5My4zODI4LDQzOSwyOTcuMzgyOCw0MzUsMjkzLjM4MjgiIHN0eWxlPSJzdHJva2U6IzE4MTgxODtzdHJva2Utd2lkdGg6MS4wOyIvPjx0ZXh0IGZpbGw9IiMwMDAwMDAiIGZvbnQtZmFtaWx5PSJzYW5zLXNlcmlmIiBmb250LXNpemU9IjEzIiBsZW5ndGhBZGp1c3Q9InNwYWNpbmciIHRleHRMZW5ndGg9IjEzNyIgeD0iNDM1IiB5PSIyNzYuNzU3OCI+UHJvY2VlZCB0byBuZXh0IHN0ZXA8L3RleHQ+PGxpbmUgc3R5bGU9InN0cm9rZTojMDAwMDAwO3N0cm9rZS13aWR0aDoxLjA7c3Ryb2tlLWRhc2hhcnJheToyLjAsMi4wOyIgeDE9IjMwIiB4Mj0iNTg0IiB5MT0iMzAyLjM4MjgiIHkyPSIzMDIuMzgyOCIvPjx0ZXh0IGZpbGw9IiMwMDAwMDAiIGZvbnQtZmFtaWx5PSJzYW5zLXNlcmlmIiBmb250LXNpemU9IjExIiBmb250LXdlaWdodD0iYm9sZCIgbGVuZ3RoQWRqdXN0PSJzcGFjaW5nIiB0ZXh0TGVuZ3RoPSIxNTAiIHg9IjM1IiB5PSIzMTIuNzgxMyI+W0lucHV0IHN0cmluZyBpcyBpbnZhbGlkXTwvdGV4dD48cG9seWdvbiBmaWxsPSIjMTgxODE4IiBwb2ludHM9IjY4LDMzMS4wNzAzLDU4LDMzNS4wNzAzLDY4LDMzOS4wNzAzLDY0LDMzNS4wNzAzIiBzdHlsZT0ic3Ryb2tlOiMxODE4MTg7c3Ryb2tlLXdpZHRoOjEuMDsiLz48bGluZSBzdHlsZT0ic3Ryb2tlOiMxODE4MTg7c3Ryb2tlLXdpZHRoOjEuMDsiIHgxPSI2MiIgeDI9IjQyNyIgeTE9IjMzNS4wNzAzIiB5Mj0iMzM1LjA3MDMiLz48dGV4dCBmaWxsPSIjMDAwMDAwIiBmb250LWZhbWlseT0ic2Fucy1zZXJpZiIgZm9udC1zaXplPSIxMyIgbGVuZ3RoQWRqdXN0PSJzcGFjaW5nIiB0ZXh0TGVuZ3RoPSIxODMiIHg9Ijc0IiB5PSIzMzEuNDQ1MyI+Tm90aWZ5IHVzZXIgdG8gY29ycmVjdCBkYXRhPC90ZXh0Pjxwb2x5Z29uIGZpbGw9IiMxODE4MTgiIHBvaW50cz0iNDE2LDM1OC45ODQ0LDQyNiwzNjIuOTg0NCw0MTYsMzY2Ljk4NDQsNDIwLDM2Mi45ODQ0IiBzdHlsZT0ic3Ryb2tlOiMxODE4MTg7c3Ryb2tlLXdpZHRoOjEuMDsiLz48bGluZSBzdHlsZT0ic3Ryb2tlOiMxODE4MTg7c3Ryb2tlLXdpZHRoOjEuMDsiIHgxPSI1NyIgeDI9IjQyMiIgeTE9IjM2Mi45ODQ0IiB5Mj0iMzYyLjk4NDQiLz48dGV4dCBmaWxsPSIjMDAwMDAwIiBmb250LWZhbWlseT0ic2Fucy1zZXJpZiIgZm9udC1zaXplPSIxMyIgbGVuZ3RoQWRqdXN0PSJzcGFjaW5nIiB0ZXh0TGVuZ3RoPSIxNTciIHg9IjY0IiB5PSIzNTkuMzU5NCI+UHJvdmlkZSBjb3JyZWN0ZWQgaW5wdXQ8L3RleHQ+PGxpbmUgc3R5bGU9InN0cm9rZTojMTgxODE4O3N0cm9rZS13aWR0aDoxLjA7IiB4MT0iNDI4IiB4Mj0iNDcwIiB5MT0iMzkwLjg5ODQiIHkyPSIzOTAuODk4NCIvPjxsaW5lIHN0eWxlPSJzdHJva2U6IzE4MTgxODtzdHJva2Utd2lkdGg6MS4wOyIgeDE9IjQ3MCIgeDI9IjQ3MCIgeTE9IjM5MC44OTg0IiB5Mj0iNDAzLjg5ODQiLz48bGluZSBzdHlsZT0ic3Ryb2tlOiMxODE4MTg7c3Ryb2tlLXdpZHRoOjEuMDsiIHgxPSI0MjkiIHgyPSI0NzAiIHkxPSI0MDMuODk4NCIgeTI9IjQwMy44OTg0Ii8+PHBvbHlnb24gZmlsbD0iIzE4MTgxOCIgcG9pbnRzPSI0MzksMzk5Ljg5ODQsNDI5LDQwMy44OTg0LDQzOSw0MDcuODk4NCw0MzUsNDAzLjg5ODQiIHN0eWxlPSJzdHJva2U6IzE4MTgxODtzdHJva2Utd2lkdGg6MS4wOyIvPjx0ZXh0IGZpbGw9IiMwMDAwMDAiIGZvbnQtZmFtaWx5PSJzYW5zLXNlcmlmIiBmb250LXNpemU9IjEzIiBsZW5ndGhBZGp1c3Q9InNwYWNpbmciIHRleHRMZW5ndGg9IjEwNyIgeD0iNDM1IiB5PSIzODcuMjczNCI+UmV2YWxpZGF0ZSBpbnB1dDwvdGV4dD48cGF0aCBkPSJNMjAsNDMyLjg5ODQgTDE1NCw0MzIuODk4NCBMMTU0LDQzOC44MTI1IEwxNDQsNDQ4LjgxMjUgTDIwLDQ0OC44MTI1IEwyMCw0MzIuODk4NCAiIGZpbGw9IiNFRUVFRUUiIHN0eWxlPSJzdHJva2U6IzAwMDAwMDtzdHJva2Utd2lkdGg6MS41OyIvPjxyZWN0IGZpbGw9Im5vbmUiIGhlaWdodD0iMjc5LjA4NTkiIHN0eWxlPSJzdHJva2U6IzAwMDAwMDtzdHJva2Utd2lkdGg6MS41OyIgd2lkdGg9IjcwMiIgeD0iMjAiIHk9IjQzMi44OTg0Ii8+PHRleHQgZmlsbD0iIzAwMDAwMCIgZm9udC1mYW1pbHk9InNhbnMtc2VyaWYiIGZvbnQtc2l6ZT0iMTMiIGZvbnQtd2VpZ2h0PSJib2xkIiBsZW5ndGhBZGp1c3Q9InNwYWNpbmciIHRleHRMZW5ndGg9Ijg5IiB4PSIzNSIgeT0iNDQ2LjE4NzUiPk9yZ2FuaXplIERhdGE8L3RleHQ+PGxpbmUgc3R5bGU9InN0cm9rZTojMTgxODE4O3N0cm9rZS13aWR0aDoxLjA7IiB4MT0iNDI4IiB4Mj0iNDcwIiB5MT0iNDY4LjcyNjYiIHkyPSI0NjguNzI2NiIvPjxsaW5lIHN0eWxlPSJzdHJva2U6IzE4MTgxODtzdHJva2Utd2lkdGg6MS4wOyIgeDE9IjQ3MCIgeDI9IjQ3MCIgeTE9IjQ2OC43MjY2IiB5Mj0iNDgxLjcyNjYiLz48bGluZSBzdHlsZT0ic3Ryb2tlOiMxODE4MTg7c3Ryb2tlLXdpZHRoOjEuMDsiIHgxPSI0MjkiIHgyPSI0NzAiIHkxPSI0ODEuNzI2NiIgeTI9IjQ4MS43MjY2Ii8+PHBvbHlnb24gZmlsbD0iIzE4MTgxOCIgcG9pbnRzPSI0MzksNDc3LjcyNjYsNDI5LDQ4MS43MjY2LDQzOSw0ODUuNzI2Niw0MzUsNDgxLjcyNjYiIHN0eWxlPSJzdHJva2U6IzE4MTgxODtzdHJva2Utd2lkdGg6MS4wOyIvPjx0ZXh0IGZpbGw9IiMwMDAwMDAiIGZvbnQtZmFtaWx5PSJzYW5zLXNlcmlmIiBmb250LXNpemU9IjEzIiBsZW5ndGhBZGp1c3Q9InNwYWNpbmciIHRleHRMZW5ndGg9IjIzNSIgeD0iNDM1IiB5PSI0NjUuMTAxNiI+Q3JlYXRlIGRpY3Rpb25hcnkgd2l0aCBwbGF5ZXIgc3RhdHM8L3RleHQ+PGxpbmUgc3R5bGU9InN0cm9rZTojMTgxODE4O3N0cm9rZS13aWR0aDoxLjA7IiB4MT0iNDI4IiB4Mj0iNDcwIiB5MT0iNTA5LjY0MDYiIHkyPSI1MDkuNjQwNiIvPjxsaW5lIHN0eWxlPSJzdHJva2U6IzE4MTgxODtzdHJva2Utd2lkdGg6MS4wOyIgeDE9IjQ3MCIgeDI9IjQ3MCIgeTE9IjUwOS42NDA2IiB5Mj0iNTIyLjY0MDYiLz48bGluZSBzdHlsZT0ic3Ryb2tlOiMxODE4MTg7c3Ryb2tlLXdpZHRoOjEuMDsiIHgxPSI0MjkiIHgyPSI0NzAiIHkxPSI1MjIuNjQwNiIgeTI9IjUyMi42NDA2Ii8+PHBvbHlnb24gZmlsbD0iIzE4MTgxOCIgcG9pbnRzPSI0MzksNTE4LjY0MDYsNDI5LDUyMi42NDA2LDQzOSw1MjYuNjQwNiw0MzUsNTIyLjY0MDYiIHN0eWxlPSJzdHJva2U6IzE4MTgxODtzdHJva2Utd2lkdGg6MS4wOyIvPjx0ZXh0IGZpbGw9IiMwMDAwMDAiIGZvbnQtZmFtaWx5PSJzYW5zLXNlcmlmIiBmb250LXNpemU9IjEzIiBsZW5ndGhBZGp1c3Q9InNwYWNpbmciIHRleHRMZW5ndGg9IjI3NSIgeD0iNDM1IiB5PSI1MDYuMDE1NiI+Q2hlY2sgaWYgdG90YWwgQnV5SW4gbWF0Y2hlcyB0b3RhbCBCdXlPdXQ8L3RleHQ+PHBhdGggZD0iTTMwLDUzNy42NDA2IEw5NCw1MzcuNjQwNiBMOTQsNTQzLjU1NDcgTDg0LDU1My41NTQ3IEwzMCw1NTMuNTU0NyBMMzAsNTM3LjY0MDYgIiBmaWxsPSIjRUVFRUVFIiBzdHlsZT0ic3Ryb2tlOiMwMDAwMDA7c3Ryb2tlLXdpZHRoOjEuNTsiLz48cmVjdCBmaWxsPSJub25lIiBoZWlnaHQ9IjE2Ny4zNDM4IiBzdHlsZT0ic3Ryb2tlOiMwMDAwMDA7c3Ryb2tlLXdpZHRoOjEuNTsiIHdpZHRoPSI1NTQiIHg9IjMwIiB5PSI1MzcuNjQwNiIvPjx0ZXh0IGZpbGw9IiMwMDAwMDAiIGZvbnQtZmFtaWx5PSJzYW5zLXNlcmlmIiBmb250LXNpemU9IjEzIiBmb250LXdlaWdodD0iYm9sZCIgbGVuZ3RoQWRqdXN0PSJzcGFjaW5nIiB0ZXh0TGVuZ3RoPSIxOSIgeD0iNDUiIHk9IjU1MC45Mjk3Ij5hbHQ8L3RleHQ+PHRleHQgZmlsbD0iIzAwMDAwMCIgZm9udC1mYW1pbHk9InNhbnMtc2VyaWYiIGZvbnQtc2l6ZT0iMTEiIGZvbnQtd2VpZ2h0PSJib2xkIiBsZW5ndGhBZGp1c3Q9InNwYWNpbmciIHRleHRMZW5ndGg9Ijg0IiB4PSIxMDkiIHk9IjU1MC4wMzkxIj5bVG90YWxzIG1hdGNoXTwvdGV4dD48bGluZSBzdHlsZT0ic3Ryb2tlOiMxODE4MTg7c3Ryb2tlLXdpZHRoOjEuMDsiIHgxPSI0MjgiIHgyPSI0NzAiIHkxPSI1NzMuNDY4OCIgeTI9IjU3My40Njg4Ii8+PGxpbmUgc3R5bGU9InN0cm9rZTojMTgxODE4O3N0cm9rZS13aWR0aDoxLjA7IiB4MT0iNDcwIiB4Mj0iNDcwIiB5MT0iNTczLjQ2ODgiIHkyPSI1ODYuNDY4OCIvPjxsaW5lIHN0eWxlPSJzdHJva2U6IzE4MTgxODtzdHJva2Utd2lkdGg6MS4wOyIgeDE9IjQyOSIgeDI9IjQ3MCIgeTE9IjU4Ni40Njg4IiB5Mj0iNTg2LjQ2ODgiLz48cG9seWdvbiBmaWxsPSIjMTgxODE4IiBwb2ludHM9IjQzOSw1ODIuNDY4OCw0MjksNTg2LjQ2ODgsNDM5LDU5MC40Njg4LDQzNSw1ODYuNDY4OCIgc3R5bGU9InN0cm9rZTojMTgxODE4O3N0cm9rZS13aWR0aDoxLjA7Ii8+PHRleHQgZmlsbD0iIzAwMDAwMCIgZm9udC1mYW1pbHk9InNhbnMtc2VyaWYiIGZvbnQtc2l6ZT0iMTMiIGxlbmd0aEFkanVzdD0ic3BhY2luZyIgdGV4dExlbmd0aD0iMTM3IiB4PSI0MzUiIHk9IjU2OS44NDM4Ij5Qcm9jZWVkIHRvIG5leHQgc3RlcDwvdGV4dD48bGluZSBzdHlsZT0ic3Ryb2tlOiMwMDAwMDA7c3Ryb2tlLXdpZHRoOjEuMDtzdHJva2UtZGFzaGFycmF5OjIuMCwyLjA7IiB4MT0iMzAiIHgyPSI1ODQiIHkxPSI1OTUuNDY4OCIgeTI9IjU5NS40Njg4Ii8+PHRleHQgZmlsbD0iIzAwMDAwMCIgZm9udC1mYW1pbHk9InNhbnMtc2VyaWYiIGZvbnQtc2l6ZT0iMTEiIGZvbnQtd2VpZ2h0PSJib2xkIiBsZW5ndGhBZGp1c3Q9InNwYWNpbmciIHRleHRMZW5ndGg9IjEwMiIgeD0iMzUiIHk9IjYwNS44NjcyIj5bVG90YWxzIG1pc21hdGNoXTwvdGV4dD48cG9seWdvbiBmaWxsPSIjMTgxODE4IiBwb2ludHM9IjY4LDYyNC4xNTYzLDU4LDYyOC4xNTYzLDY4LDYzMi4xNTYzLDY0LDYyOC4xNTYzIiBzdHlsZT0ic3Ryb2tlOiMxODE4MTg7c3Ryb2tlLXdpZHRoOjEuMDsiLz48bGluZSBzdHlsZT0ic3Ryb2tlOiMxODE4MTg7c3Ryb2tlLXdpZHRoOjEuMDsiIHgxPSI2MiIgeDI9IjQyNyIgeTE9IjYyOC4xNTYzIiB5Mj0iNjI4LjE1NjMiLz48dGV4dCBmaWxsPSIjMDAwMDAwIiBmb250LWZhbWlseT0ic2Fucy1zZXJpZiIgZm9udC1zaXplPSIxMyIgbGVuZ3RoQWRqdXN0PSJzcGFjaW5nIiB0ZXh0TGVuZ3RoPSIyODQiIHg9Ijc0IiB5PSI2MjQuNTMxMyI+U3VnZ2VzdCBzb2x1dGlvbnMgZm9yIGZpeGluZyBkaXNjcmVwYW5jaWVzPC90ZXh0Pjxwb2x5Z29uIGZpbGw9IiMxODE4MTgiIHBvaW50cz0iNDE2LDY1Mi4wNzAzLDQyNiw2NTYuMDcwMyw0MTYsNjYwLjA3MDMsNDIwLDY1Ni4wNzAzIiBzdHlsZT0ic3Ryb2tlOiMxODE4MTg7c3Ryb2tlLXdpZHRoOjEuMDsiLz48bGluZSBzdHlsZT0ic3Ryb2tlOiMxODE4MTg7c3Ryb2tlLXdpZHRoOjEuMDsiIHgxPSI1NyIgeDI9IjQyMiIgeTE9IjY1Ni4wNzAzIiB5Mj0iNjU2LjA3MDMiLz48dGV4dCBmaWxsPSIjMDAwMDAwIiBmb250LWZhbWlseT0ic2Fucy1zZXJpZiIgZm9udC1zaXplPSIxMyIgbGVuZ3RoQWRqdXN0PSJzcGFjaW5nIiB0ZXh0TGVuZ3RoPSIxMzciIHg9IjY0IiB5PSI2NTIuNDQ1MyI+UHJvdmlkZSB1cGRhdGVkIGRhdGE8L3RleHQ+PGxpbmUgc3R5bGU9InN0cm9rZTojMTgxODE4O3N0cm9rZS13aWR0aDoxLjA7IiB4MT0iNDI4IiB4Mj0iNDcwIiB5MT0iNjgzLjk4NDQiIHkyPSI2ODMuOTg0NCIvPjxsaW5lIHN0eWxlPSJzdHJva2U6IzE4MTgxODtzdHJva2Utd2lkdGg6MS4wOyIgeDE9IjQ3MCIgeDI9IjQ3MCIgeTE9IjY4My45ODQ0IiB5Mj0iNjk2Ljk4NDQiLz48bGluZSBzdHlsZT0ic3Ryb2tlOiMxODE4MTg7c3Ryb2tlLXdpZHRoOjEuMDsiIHgxPSI0MjkiIHgyPSI0NzAiIHkxPSI2OTYuOTg0NCIgeTI9IjY5Ni45ODQ0Ii8+PHBvbHlnb24gZmlsbD0iIzE4MTgxOCIgcG9pbnRzPSI0MzksNjkyLjk4NDQsNDI5LDY5Ni45ODQ0LDQzOSw3MDAuOTg0NCw0MzUsNjk2Ljk4NDQiIHN0eWxlPSJzdHJva2U6IzE4MTgxODtzdHJva2Utd2lkdGg6MS4wOyIvPjx0ZXh0IGZpbGw9IiMwMDAwMDAiIGZvbnQtZmFtaWx5PSJzYW5zLXNlcmlmIiBmb250LXNpemU9IjEzIiBsZW5ndGhBZGp1c3Q9InNwYWNpbmciIHRleHRMZW5ndGg9Ijk1IiB4PSI0MzUiIHk9IjY4MC4zNTk0Ij5SZWNoZWNrIHRvdGFsczwvdGV4dD48cGF0aCBkPSJNMTAsNzI1Ljk4NDQgTDIzMSw3MjUuOTg0NCBMMjMxLDczMS44OTg0IEwyMjEsNzQxLjg5ODQgTDEwLDc0MS44OTg0IEwxMCw3MjUuOTg0NCAiIGZpbGw9IiNFRUVFRUUiIHN0eWxlPSJzdHJva2U6IzAwMDAwMDtzdHJva2Utd2lkdGg6MS41OyIvPjxyZWN0IGZpbGw9Im5vbmUiIGhlaWdodD0iOTIwLjM5ODQiIHN0eWxlPSJzdHJva2U6IzAwMDAwMDtzdHJva2Utd2lkdGg6MS41OyIgd2lkdGg9Ijg5MiIgeD0iMTAiIHk9IjcyNS45ODQ0Ii8+PHRleHQgZmlsbD0iIzAwMDAwMCIgZm9udC1mYW1pbHk9InNhbnMtc2VyaWYiIGZvbnQtc2l6ZT0iMTMiIGZvbnQtd2VpZ2h0PSJib2xkIiBsZW5ndGhBZGp1c3Q9InNwYWNpbmciIHRleHRMZW5ndGg9IjE3NiIgeD0iMjUiIHk9IjczOS4yNzM0Ij5QcmVwYXJlIGZvciBTZXR0bGluZyBEZWJ0czwvdGV4dD48bGluZSBzdHlsZT0ic3Ryb2tlOiMxODE4MTg7c3Ryb2tlLXdpZHRoOjEuMDsiIHgxPSI0MjgiIHgyPSI0NzAiIHkxPSI3NjEuODEyNSIgeTI9Ijc2MS44MTI1Ii8+PGxpbmUgc3R5bGU9InN0cm9rZTojMTgxODE4O3N0cm9rZS13aWR0aDoxLjA7IiB4MT0iNDcwIiB4Mj0iNDcwIiB5MT0iNzYxLjgxMjUiIHkyPSI3NzQuODEyNSIvPjxsaW5lIHN0eWxlPSJzdHJva2U6IzE4MTgxODtzdHJva2Utd2lkdGg6MS4wOyIgeDE9IjQyOSIgeDI9IjQ3MCIgeTE9Ijc3NC44MTI1IiB5Mj0iNzc0LjgxMjUiLz48cG9seWdvbiBmaWxsPSIjMTgxODE4IiBwb2ludHM9IjQzOSw3NzAuODEyNSw0MjksNzc0LjgxMjUsNDM5LDc3OC44MTI1LDQzNSw3NzQuODEyNSIgc3R5bGU9InN0cm9rZTojMTgxODE4O3N0cm9rZS13aWR0aDoxLjA7Ii8+PHRleHQgZmlsbD0iIzAwMDAwMCIgZm9udC1mYW1pbHk9InNhbnMtc2VyaWYiIGZvbnQtc2l6ZT0iMTMiIGxlbmd0aEFkanVzdD0ic3BhY2luZyIgdGV4dExlbmd0aD0iMjg3IiB4PSI0MzUiIHk9Ijc1OC4xODc1Ij5DcmVhdGUgYW5kIHNvcnQgTG9zZXJzTGlzdCBhbmQgV2lubmVyc0xpc3Q8L3RleHQ+PGxpbmUgc3R5bGU9InN0cm9rZTojMTgxODE4O3N0cm9rZS13aWR0aDoxLjA7IiB4MT0iNDI4IiB4Mj0iNDcwIiB5MT0iODAyLjcyNjYiIHkyPSI4MDIuNzI2NiIvPjxsaW5lIHN0eWxlPSJzdHJva2U6IzE4MTgxODtzdHJva2Utd2lkdGg6MS4wOyIgeDE9IjQ3MCIgeDI9IjQ3MCIgeTE9IjgwMi43MjY2IiB5Mj0iODE1LjcyNjYiLz48bGluZSBzdHlsZT0ic3Ryb2tlOiMxODE4MTg7c3Ryb2tlLXdpZHRoOjEuMDsiIHgxPSI0MjkiIHgyPSI0NzAiIHkxPSI4MTUuNzI2NiIgeTI9IjgxNS43MjY2Ii8+PHBvbHlnb24gZmlsbD0iIzE4MTgxOCIgcG9pbnRzPSI0MzksODExLjcyNjYsNDI5LDgxNS43MjY2LDQzOSw4MTkuNzI2Niw0MzUsODE1LjcyNjYiIHN0eWxlPSJzdHJva2U6IzE4MTgxODtzdHJva2Utd2lkdGg6MS4wOyIvPjx0ZXh0IGZpbGw9IiMwMDAwMDAiIGZvbnQtZmFtaWx5PSJzYW5zLXNlcmlmIiBmb250LXNpemU9IjEzIiBsZW5ndGhBZGp1c3Q9InNwYWNpbmciIHRleHRMZW5ndGg9IjI2NyIgeD0iNDM1IiB5PSI3OTkuMTAxNiI+TG9vcCB0aHJvdWdoIExvc2Vyc0xpc3QgYW5kIFdpbm5lcnNMaXN0PC90ZXh0PjxwYXRoIGQ9Ik0yMCw4MzAuNzI2NiBMOTIsODMwLjcyNjYgTDkyLDgzNi42NDA2IEw4Miw4NDYuNjQwNiBMMjAsODQ2LjY0MDYgTDIwLDgzMC43MjY2ICIgZmlsbD0iI0VFRUVFRSIgc3R5bGU9InN0cm9rZTojMDAwMDAwO3N0cm9rZS13aWR0aDoxLjU7Ii8+PHJlY3QgZmlsbD0ibm9uZSIgaGVpZ2h0PSIyNTEuMTcxOSIgc3R5bGU9InN0cm9rZTojMDAwMDAwO3N0cm9rZS13aWR0aDoxLjU7IiB3aWR0aD0iODcyIiB4PSIyMCIgeT0iODMwLjcyNjYiLz48dGV4dCBmaWxsPSIjMDAwMDAwIiBmb250LWZhbWlseT0ic2Fucy1zZXJpZiIgZm9udC1zaXplPSIxMyIgZm9udC13ZWlnaHQ9ImJvbGQiIGxlbmd0aEFkanVzdD0ic3BhY2luZyIgdGV4dExlbmd0aD0iMjciIHg9IjM1IiB5PSI4NDQuMDE1NiI+bG9vcDwvdGV4dD48dGV4dCBmaWxsPSIjMDAwMDAwIiBmb250LWZhbWlseT0ic2Fucy1zZXJpZiIgZm9udC1zaXplPSIxMSIgZm9udC13ZWlnaHQ9ImJvbGQiIGxlbmd0aEFkanVzdD0ic3BhY2luZyIgdGV4dExlbmd0aD0iOTAiIHg9IjEwNyIgeT0iODQzLjEyNSI+W1Byb2Nlc3MgTGlzdHNdPC90ZXh0PjxsaW5lIHN0eWxlPSJzdHJva2U6IzE4MTgxODtzdHJva2Utd2lkdGg6MS4wOyIgeDE9IjQyOCIgeDI9IjQ3MCIgeTE9Ijg2Ni41NTQ3IiB5Mj0iODY2LjU1NDciLz48bGluZSBzdHlsZT0ic3Ryb2tlOiMxODE4MTg7c3Ryb2tlLXdpZHRoOjEuMDsiIHgxPSI0NzAiIHgyPSI0NzAiIHkxPSI4NjYuNTU0NyIgeTI9Ijg3OS41NTQ3Ii8+PGxpbmUgc3R5bGU9InN0cm9rZTojMTgxODE4O3N0cm9rZS13aWR0aDoxLjA7IiB4MT0iNDI5IiB4Mj0iNDcwIiB5MT0iODc5LjU1NDciIHkyPSI4NzkuNTU0NyIvPjxwb2x5Z29uIGZpbGw9IiMxODE4MTgiIHBvaW50cz0iNDM5LDg3NS41NTQ3LDQyOSw4NzkuNTU0Nyw0MzksODgzLjU1NDcsNDM1LDg3OS41NTQ3IiBzdHlsZT0ic3Ryb2tlOiMxODE4MTg7c3Ryb2tlLXdpZHRoOjEuMDsiLz48dGV4dCBmaWxsPSIjMDAwMDAwIiBmb250LWZhbWlseT0ic2Fucy1zZXJpZiIgZm9udC1zaXplPSIxMyIgbGVuZ3RoQWRqdXN0PSJzcGFjaW5nIiB0ZXh0TGVuZ3RoPSIyODYiIHg9IjQzNSIgeT0iODYyLjkyOTciPkNvbXBhcmUgbG9zZXJQYXlBbW91bnQgYW5kIHdpbm5lclBheUFtb3VudDwvdGV4dD48cGF0aCBkPSJNMzAsODk0LjU1NDcgTDk0LDg5NC41NTQ3IEw5NCw5MDAuNDY4OCBMODQsOTEwLjQ2ODggTDMwLDkxMC40Njg4IEwzMCw4OTQuNTU0NyAiIGZpbGw9IiNFRUVFRUUiIHN0eWxlPSJzdHJva2U6IzAwMDAwMDtzdHJva2Utd2lkdGg6MS41OyIvPjxyZWN0IGZpbGw9Im5vbmUiIGhlaWdodD0iMTgwLjM0MzgiIHN0eWxlPSJzdHJva2U6IzAwMDAwMDtzdHJva2Utd2lkdGg6MS41OyIgd2lkdGg9Ijg1MiIgeD0iMzAiIHk9Ijg5NC41NTQ3Ii8+PHRleHQgZmlsbD0iIzAwMDAwMCIgZm9udC1mYW1pbHk9InNhbnMtc2VyaWYiIGZvbnQtc2l6ZT0iMTMiIGZvbnQtd2VpZ2h0PSJib2xkIiBsZW5ndGhBZGp1c3Q9InNwYWNpbmciIHRleHRMZW5ndGg9IjE5IiB4PSI0NSIgeT0iOTA3Ljg0MzgiPmFsdDwvdGV4dD48dGV4dCBmaWxsPSIjMDAwMDAwIiBmb250LWZhbWlseT0ic2Fucy1zZXJpZiIgZm9udC1zaXplPSIxMSIgZm9udC13ZWlnaHQ9ImJvbGQiIGxlbmd0aEFkanVzdD0ic3BhY2luZyIgdGV4dExlbmd0aD0iNzgiIHg9IjEwOSIgeT0iOTA2Ljk1MzEiPltFeGFjdCBtYXRjaF08L3RleHQ+PHBvbHlnb24gZmlsbD0iIzE4MTgxOCIgcG9pbnRzPSI2OCw5MjYuMzgyOCw1OCw5MzAuMzgyOCw2OCw5MzQuMzgyOCw2NCw5MzAuMzgyOCIgc3R5bGU9InN0cm9rZTojMTgxODE4O3N0cm9rZS13aWR0aDoxLjA7Ii8+PGxpbmUgc3R5bGU9InN0cm9rZTojMTgxODE4O3N0cm9rZS13aWR0aDoxLjA7IiB4MT0iNjIiIHgyPSI0MjciIHkxPSI5MzAuMzgyOCIgeTI9IjkzMC4zODI4Ii8+PHRleHQgZmlsbD0iIzAwMDAwMCIgZm9udC1mYW1pbHk9InNhbnMtc2VyaWYiIGZvbnQtc2l6ZT0iMTMiIGxlbmd0aEFkanVzdD0ic3BhY2luZyIgdGV4dExlbmd0aD0iMTUzIiB4PSI3NCIgeT0iOTI2Ljc1NzgiPlByaW50IHBheW1lbnQgc3RhdGVtZW50PC90ZXh0PjxsaW5lIHN0eWxlPSJzdHJva2U6IzE4MTgxODtzdHJva2Utd2lkdGg6MS4wOyIgeDE9IjQyOCIgeDI9IjQ3MCIgeTE9Ijk1OC4yOTY5IiB5Mj0iOTU4LjI5NjkiLz48bGluZSBzdHlsZT0ic3Ryb2tlOiMxODE4MTg7c3Ryb2tlLXdpZHRoOjEuMDsiIHgxPSI0NzAiIHgyPSI0NzAiIHkxPSI5NTguMjk2OSIgeTI9Ijk3MS4yOTY5Ii8+PGxpbmUgc3R5bGU9InN0cm9rZTojMTgxODE4O3N0cm9rZS13aWR0aDoxLjA7IiB4MT0iNDI5IiB4Mj0iNDcwIiB5MT0iOTcxLjI5NjkiIHkyPSI5NzEuMjk2OSIvPjxwb2x5Z29uIGZpbGw9IiMxODE4MTgiIHBvaW50cz0iNDM5LDk2Ny4yOTY5LDQyOSw5NzEuMjk2OSw0MzksOTc1LjI5NjksNDM1LDk3MS4yOTY5IiBzdHlsZT0ic3Ryb2tlOiMxODE4MTg7c3Ryb2tlLXdpZHRoOjEuMDsiLz48dGV4dCBmaWxsPSIjMDAwMDAwIiBmb250LWZhbWlseT0ic2Fucy1zZXJpZiIgZm9udC1zaXplPSIxMyIgbGVuZ3RoQWRqdXN0PSJzcGFjaW5nIiB0ZXh0TGVuZ3RoPSIyMTMiIHg9IjQzNSIgeT0iOTU0LjY3MTkiPk1hcmsgbG9zZXIgYW5kIHdpbm5lciBhcyAicGFpZCI8L3RleHQ+PGxpbmUgc3R5bGU9InN0cm9rZTojMTgxODE4O3N0cm9rZS13aWR0aDoxLjA7IiB4MT0iNDI4IiB4Mj0iNDcwIiB5MT0iOTk5LjIxMDkiIHkyPSI5OTkuMjEwOSIvPjxsaW5lIHN0eWxlPSJzdHJva2U6IzE4MTgxODtzdHJva2Utd2lkdGg6MS4wOyIgeDE9IjQ3MCIgeDI9IjQ3MCIgeTE9Ijk5OS4yMTA5IiB5Mj0iMTAxMi4yMTA5Ii8+PGxpbmUgc3R5bGU9InN0cm9rZTojMTgxODE4O3N0cm9rZS13aWR0aDoxLjA7IiB4MT0iNDI5IiB4Mj0iNDcwIiB5MT0iMTAxMi4yMTA5IiB5Mj0iMTAxMi4yMTA5Ii8+PHBvbHlnb24gZmlsbD0iIzE4MTgxOCIgcG9pbnRzPSI0MzksMTAwOC4yMTA5LDQyOSwxMDEyLjIxMDksNDM5LDEwMTYuMjEwOSw0MzUsMTAxMi4yMTA5IiBzdHlsZT0ic3Ryb2tlOiMxODE4MTg7c3Ryb2tlLXdpZHRoOjEuMDsiLz48dGV4dCBmaWxsPSIjMDAwMDAwIiBmb250LWZhbWlseT0ic2Fucy1zZXJpZiIgZm9udC1zaXplPSIxMyIgbGVuZ3RoQWRqdXN0PSJzcGFjaW5nIiB0ZXh0TGVuZ3RoPSIyMjEiIHg9IjQzNSIgeT0iOTk1LjU4NTkiPlJlbW92ZSB0aGVtIGZyb20gcmVzcGVjdGl2ZSBsaXN0czwvdGV4dD48bGluZSBzdHlsZT0ic3Ryb2tlOiMwMDAwMDA7c3Ryb2tlLXdpZHRoOjEuMDtzdHJva2UtZGFzaGFycmF5OjIuMCwyLjA7IiB4MT0iMzAiIHgyPSI4ODIiIHkxPSIxMDIxLjIxMDkiIHkyPSIxMDIxLjIxMDkiLz48dGV4dCBmaWxsPSIjMDAwMDAwIiBmb250LWZhbWlseT0ic2Fucy1zZXJpZiIgZm9udC1zaXplPSIxMSIgZm9udC13ZWlnaHQ9ImJvbGQiIGxlbmd0aEFkanVzdD0ic3BhY2luZyIgdGV4dExlbmd0aD0iMTAyIiB4PSIzNSIgeT0iMTAzMS42MDk0Ij5bTm90IGV4YWN0IG1hdGNoXTwvdGV4dD48bGluZSBzdHlsZT0ic3Ryb2tlOiMxODE4MTg7c3Ryb2tlLXdpZHRoOjEuMDsiIHgxPSI0MjgiIHgyPSI0NzAiIHkxPSIxMDUzLjg5ODQiIHkyPSIxMDUzLjg5ODQiLz48bGluZSBzdHlsZT0ic3Ryb2tlOiMxODE4MTg7c3Ryb2tlLXdpZHRoOjEuMDsiIHgxPSI0NzAiIHgyPSI0NzAiIHkxPSIxMDUzLjg5ODQiIHkyPSIxMDY2Ljg5ODQiLz48bGluZSBzdHlsZT0ic3Ryb2tlOiMxODE4MTg7c3Ryb2tlLXdpZHRoOjEuMDsiIHgxPSI0MjkiIHgyPSI0NzAiIHkxPSIxMDY2Ljg5ODQiIHkyPSIxMDY2Ljg5ODQiLz48cG9seWdvbiBmaWxsPSIjMTgxODE4IiBwb2ludHM9IjQzOSwxMDYyLjg5ODQsNDI5LDEwNjYuODk4NCw0MzksMTA3MC44OTg0LDQzNSwxMDY2Ljg5ODQiIHN0eWxlPSJzdHJva2U6IzE4MTgxODtzdHJva2Utd2lkdGg6MS4wOyIvPjx0ZXh0IGZpbGw9IiMwMDAwMDAiIGZvbnQtZmFtaWx5PSJzYW5zLXNlcmlmIiBmb250LXNpemU9IjEzIiBsZW5ndGhBZGp1c3Q9InNwYWNpbmciIHRleHRMZW5ndGg9IjQzNSIgeD0iNDM1IiB5PSIxMDUwLjI3MzQiPkNvbnRpbnVlIHVudGlsIGFsbCB3aW5uZXJzIGFuZCBsb3NlcnMgY2hlY2tlZCBhZ2FpbnN0IGVhY2ggb3RoZXI8L3RleHQ+PHBhdGggZD0iTTIwLDEwOTUuODk4NCBMODQsMTA5NS44OTg0IEw4NCwxMTAxLjgxMjUgTDc0LDExMTEuODEyNSBMMjAsMTExMS44MTI1IEwyMCwxMDk1Ljg5ODQgIiBmaWxsPSIjRUVFRUVFIiBzdHlsZT0ic3Ryb2tlOiMwMDAwMDA7c3Ryb2tlLXdpZHRoOjEuNTsiLz48cmVjdCBmaWxsPSJub25lIiBoZWlnaHQ9IjI5Mi4wODU5IiBzdHlsZT0ic3Ryb2tlOiMwMDAwMDA7c3Ryb2tlLXdpZHRoOjEuNTsiIHdpZHRoPSI2ODUiIHg9IjIwIiB5PSIxMDk1Ljg5ODQiLz48dGV4dCBmaWxsPSIjMDAwMDAwIiBmb250LWZhbWlseT0ic2Fucy1zZXJpZiIgZm9udC1zaXplPSIxMyIgZm9udC13ZWlnaHQ9ImJvbGQiIGxlbmd0aEFkanVzdD0ic3BhY2luZyIgdGV4dExlbmd0aD0iMTkiIHg9IjM1IiB5PSIxMTA5LjE4NzUiPmFsdDwvdGV4dD48dGV4dCBmaWxsPSIjMDAwMDAwIiBmb250LWZhbWlseT0ic2Fucy1zZXJpZiIgZm9udC1zaXplPSIxMSIgZm9udC13ZWlnaHQ9ImJvbGQiIGxlbmd0aEFkanVzdD0ic3BhY2luZyIgdGV4dExlbmd0aD0iMTI2IiB4PSI5OSIgeT0iMTEwOC4yOTY5Ij5bREZTIFBlcmZlY3QgTWF0Y2hlc108L3RleHQ+PGxpbmUgc3R5bGU9InN0cm9rZTojMTgxODE4O3N0cm9rZS13aWR0aDoxLjA7IiB4MT0iNDI4IiB4Mj0iNDcwIiB5MT0iMTEzMS43MjY2IiB5Mj0iMTEzMS43MjY2Ii8+PGxpbmUgc3R5bGU9InN0cm9rZTojMTgxODE4O3N0cm9rZS13aWR0aDoxLjA7IiB4MT0iNDcwIiB4Mj0iNDcwIiB5MT0iMTEzMS43MjY2IiB5Mj0iMTE0NC43MjY2Ii8+PGxpbmUgc3R5bGU9InN0cm9rZTojMTgxODE4O3N0cm9rZS13aWR0aDoxLjA7IiB4MT0iNDI5IiB4Mj0iNDcwIiB5MT0iMTE0NC43MjY2IiB5Mj0iMTE0NC43MjY2Ii8+PHBvbHlnb24gZmlsbD0iIzE4MTgxOCIgcG9pbnRzPSI0MzksMTE0MC43MjY2LDQyOSwxMTQ0LjcyNjYsNDM5LDExNDguNzI2Niw0MzUsMTE0NC43MjY2IiBzdHlsZT0ic3Ryb2tlOiMxODE4MTg7c3Ryb2tlLXdpZHRoOjEuMDsiLz48dGV4dCBmaWxsPSIjMDAwMDAwIiBmb250LWZhbWlseT0ic2Fucy1zZXJpZiIgZm9udC1zaXplPSIxMyIgbGVuZ3RoQWRqdXN0PSJzcGFjaW5nIiB0ZXh0TGVuZ3RoPSIxMzciIHg9IjQzNSIgeT0iMTEyOC4xMDE2Ij5Mb29wIHRocm91Z2ggd2lubmVyczwvdGV4dD48bGluZSBzdHlsZT0ic3Ryb2tlOiMxODE4MTg7c3Ryb2tlLXdpZHRoOjEuMDsiIHgxPSI0MjgiIHgyPSI0NzAiIHkxPSIxMTcyLjY0MDYiIHkyPSIxMTcyLjY0MDYiLz48bGluZSBzdHlsZT0ic3Ryb2tlOiMxODE4MTg7c3Ryb2tlLXdpZHRoOjEuMDsiIHgxPSI0NzAiIHgyPSI0NzAiIHkxPSIxMTcyLjY0MDYiIHkyPSIxMTg1LjY0MDYiLz48bGluZSBzdHlsZT0ic3Ryb2tlOiMxODE4MTg7c3Ryb2tlLXdpZHRoOjEuMDsiIHgxPSI0MjkiIHgyPSI0NzAiIHkxPSIxMTg1LjY0MDYiIHkyPSIxMTg1LjY0MDYiLz48cG9seWdvbiBmaWxsPSIjMTgxODE4IiBwb2ludHM9IjQzOSwxMTgxLjY0MDYsNDI5LDExODUuNjQwNiw0MzksMTE4OS42NDA2LDQzNSwxMTg1LjY0MDYiIHN0eWxlPSJzdHJva2U6IzE4MTgxODtzdHJva2Utd2lkdGg6MS4wOyIvPjx0ZXh0IGZpbGw9IiMwMDAwMDAiIGZvbnQtZmFtaWx5PSJzYW5zLXNlcmlmIiBmb250LXNpemU9IjEzIiBsZW5ndGhBZGp1c3Q9InNwYWNpbmciIHRleHRMZW5ndGg9IjI0OSIgeD0iNDM1IiB5PSIxMTY5LjAxNTYiPlVzZSBERlMgdG8gZmluZCBtYXRjaGluZyBjb21iaW5hdGlvbnM8L3RleHQ+PHBhdGggZD0iTTMwLDEyMDAuNjQwNiBMOTQsMTIwMC42NDA2IEw5NCwxMjA2LjU1NDcgTDg0LDEyMTYuNTU0NyBMMzAsMTIxNi41NTQ3IEwzMCwxMjAwLjY0MDYgIiBmaWxsPSIjRUVFRUVFIiBzdHlsZT0ic3Ryb2tlOiMwMDAwMDA7c3Ryb2tlLXdpZHRoOjEuNTsiLz48cmVjdCBmaWxsPSJub25lIiBoZWlnaHQ9IjEzOS40Mjk3IiBzdHlsZT0ic3Ryb2tlOiMwMDAwMDA7c3Ryb2tlLXdpZHRoOjEuNTsiIHdpZHRoPSI2NDIiIHg9IjMwIiB5PSIxMjAwLjY0MDYiLz48dGV4dCBmaWxsPSIjMDAwMDAwIiBmb250LWZhbWlseT0ic2Fucy1zZXJpZiIgZm9udC1zaXplPSIxMyIgZm9udC13ZWlnaHQ9ImJvbGQiIGxlbmd0aEFkanVzdD0ic3BhY2luZyIgdGV4dExlbmd0aD0iMTkiIHg9IjQ1IiB5PSIxMjEzLjkyOTciPmFsdDwvdGV4dD48dGV4dCBmaWxsPSIjMDAwMDAwIiBmb250LWZhbWlseT0ic2Fucy1zZXJpZiIgZm9udC1zaXplPSIxMSIgZm9udC13ZWlnaHQ9ImJvbGQiIGxlbmd0aEFkanVzdD0ic3BhY2luZyIgdGV4dExlbmd0aD0iMTI2IiB4PSIxMDkiIHk9IjEyMTMuMDM5MSI+W1BlcmZlY3QgbWF0Y2ggZm91bmRdPC90ZXh0Pjxwb2x5Z29uIGZpbGw9IiMxODE4MTgiIHBvaW50cz0iNjgsMTIzMi40Njg4LDU4LDEyMzYuNDY4OCw2OCwxMjQwLjQ2ODgsNjQsMTIzNi40Njg4IiBzdHlsZT0ic3Ryb2tlOiMxODE4MTg7c3Ryb2tlLXdpZHRoOjEuMDsiLz48bGluZSBzdHlsZT0ic3Ryb2tlOiMxODE4MTg7c3Ryb2tlLXdpZHRoOjEuMDsiIHgxPSI2MiIgeDI9IjQyNyIgeTE9IjEyMzYuNDY4OCIgeTI9IjEyMzYuNDY4OCIvPjx0ZXh0IGZpbGw9IiMwMDAwMDAiIGZvbnQtZmFtaWx5PSJzYW5zLXNlcmlmIiBmb250LXNpemU9IjEzIiBsZW5ndGhBZGp1c3Q9InNwYWNpbmciIHRleHRMZW5ndGg9IjE1OCIgeD0iNzQiIHk9IjEyMzIuODQzOCI+UHJpbnQgc2V0dGxlbWVudCBkZXRhaWxzPC90ZXh0PjxsaW5lIHN0eWxlPSJzdHJva2U6IzE4MTgxODtzdHJva2Utd2lkdGg6MS4wOyIgeDE9IjQyOCIgeDI9IjQ3MCIgeTE9IjEyNjQuMzgyOCIgeTI9IjEyNjQuMzgyOCIvPjxsaW5lIHN0eWxlPSJzdHJva2U6IzE4MTgxODtzdHJva2Utd2lkdGg6MS4wOyIgeDE9IjQ3MCIgeDI9IjQ3MCIgeTE9IjEyNjQuMzgyOCIgeTI9IjEyNzcuMzgyOCIvPjxsaW5lIHN0eWxlPSJzdHJva2U6IzE4MTgxODtzdHJva2Utd2lkdGg6MS4wOyIgeDE9IjQyOSIgeDI9IjQ3MCIgeTE9IjEyNzcuMzgyOCIgeTI9IjEyNzcuMzgyOCIvPjxwb2x5Z29uIGZpbGw9IiMxODE4MTgiIHBvaW50cz0iNDM5LDEyNzMuMzgyOCw0MjksMTI3Ny4zODI4LDQzOSwxMjgxLjM4MjgsNDM1LDEyNzcuMzgyOCIgc3R5bGU9InN0cm9rZTojMTgxODE4O3N0cm9rZS13aWR0aDoxLjA7Ii8+PHRleHQgZmlsbD0iIzAwMDAwMCIgZm9udC1mYW1pbHk9InNhbnMtc2VyaWYiIGZvbnQtc2l6ZT0iMTMiIGxlbmd0aEFkanVzdD0ic3BhY2luZyIgdGV4dExlbmd0aD0iMjI1IiB4PSI0MzUiIHk9IjEyNjAuNzU3OCI+VXBkYXRlIExvc2Vyc0xpc3QgYW5kIFdpbm5lcnNMaXN0PC90ZXh0PjxsaW5lIHN0eWxlPSJzdHJva2U6IzAwMDAwMDtzdHJva2Utd2lkdGg6MS4wO3N0cm9rZS1kYXNoYXJyYXk6Mi4wLDIuMDsiIHgxPSIzMCIgeDI9IjY3MiIgeTE9IjEyODYuMzgyOCIgeTI9IjEyODYuMzgyOCIvPjx0ZXh0IGZpbGw9IiMwMDAwMDAiIGZvbnQtZmFtaWx5PSJzYW5zLXNlcmlmIiBmb250LXNpemU9IjExIiBmb250LXdlaWdodD0iYm9sZCIgbGVuZ3RoQWRqdXN0PSJzcGFjaW5nIiB0ZXh0TGVuZ3RoPSI5NiIgeD0iMzUiIHk9IjEyOTYuNzgxMyI+W05vIG1hdGNoIGZvdW5kXTwvdGV4dD48bGluZSBzdHlsZT0ic3Ryb2tlOiMxODE4MTg7c3Ryb2tlLXdpZHRoOjEuMDsiIHgxPSI0MjgiIHgyPSI0NzAiIHkxPSIxMzE5LjA3MDMiIHkyPSIxMzE5LjA3MDMiLz48bGluZSBzdHlsZT0ic3Ryb2tlOiMxODE4MTg7c3Ryb2tlLXdpZHRoOjEuMDsiIHgxPSI0NzAiIHgyPSI0NzAiIHkxPSIxMzE5LjA3MDMiIHkyPSIxMzMyLjA3MDMiLz48bGluZSBzdHlsZT0ic3Ryb2tlOiMxODE4MTg7c3Ryb2tlLXdpZHRoOjEuMDsiIHgxPSI0MjkiIHgyPSI0NzAiIHkxPSIxMzMyLjA3MDMiIHkyPSIxMzMyLjA3MDMiLz48cG9seWdvbiBmaWxsPSIjMTgxODE4IiBwb2ludHM9IjQzOSwxMzI4LjA3MDMsNDI5LDEzMzIuMDcwMyw0MzksMTMzNi4wNzAzLDQzNSwxMzMyLjA3MDMiIHN0eWxlPSJzdHJva2U6IzE4MTgxODtzdHJva2Utd2lkdGg6MS4wOyIvPjx0ZXh0IGZpbGw9IiMwMDAwMDAiIGZvbnQtZmFtaWx5PSJzYW5zLXNlcmlmIiBmb250LXNpemU9IjEzIiBsZW5ndGhBZGp1c3Q9InNwYWNpbmciIHRleHRMZW5ndGg9IjE1MCIgeD0iNDM1IiB5PSIxMzE1LjQ0NTMiPlByb2NlZWQgdG8gbmV4dCB3aW5uZXI8L3RleHQ+PGxpbmUgc3R5bGU9InN0cm9rZTojMTgxODE4O3N0cm9rZS13aWR0aDoxLjA7IiB4MT0iNDI4IiB4Mj0iNDcwIiB5MT0iMTM2Ni45ODQ0IiB5Mj0iMTM2Ni45ODQ0Ii8+PGxpbmUgc3R5bGU9InN0cm9rZTojMTgxODE4O3N0cm9rZS13aWR0aDoxLjA7IiB4MT0iNDcwIiB4Mj0iNDcwIiB5MT0iMTM2Ni45ODQ0IiB5Mj0iMTM3OS45ODQ0Ii8+PGxpbmUgc3R5bGU9InN0cm9rZTojMTgxODE4O3N0cm9rZS13aWR0aDoxLjA7IiB4MT0iNDI5IiB4Mj0iNDcwIiB5MT0iMTM3OS45ODQ0IiB5Mj0iMTM3OS45ODQ0Ii8+PHBvbHlnb24gZmlsbD0iIzE4MTgxOCIgcG9pbnRzPSI0MzksMTM3NS45ODQ0LDQyOSwxMzc5Ljk4NDQsNDM5LDEzODMuOTg0NCw0MzUsMTM3OS45ODQ0IiBzdHlsZT0ic3Ryb2tlOiMxODE4MTg7c3Ryb2tlLXdpZHRoOjEuMDsiLz48dGV4dCBmaWxsPSIjMDAwMDAwIiBmb250LWZhbWlseT0ic2Fucy1zZXJpZiIgZm9udC1zaXplPSIxMyIgbGVuZ3RoQWRqdXN0PSJzcGFjaW5nIiB0ZXh0TGVuZ3RoPSIyNTgiIHg9IjQzNSIgeT0iMTM2My4zNTk0Ij5SZXBlYXQgdW50aWwgYWxsIHdpbm5lcnMgYXJlIHByb2Nlc3NlZDwvdGV4dD48cGF0aCBkPSJNMzAsMTQwMS45ODQ0IEwyMjksMTQwMS45ODQ0IEwyMjksMTQwNy44OTg0IEwyMTksMTQxNy44OTg0IEwzMCwxNDE3Ljg5ODQgTDMwLDE0MDEuOTg0NCAiIGZpbGw9IiNFRUVFRUUiIHN0eWxlPSJzdHJva2U6IzAwMDAwMDtzdHJva2Utd2lkdGg6MS41OyIvPjxyZWN0IGZpbGw9Im5vbmUiIGhlaWdodD0iMjM3LjM5ODQiIHN0eWxlPSJzdHJva2U6IzAwMDAwMDtzdHJva2Utd2lkdGg6MS41OyIgd2lkdGg9IjY1OSIgeD0iMzAiIHk9IjE0MDEuOTg0NCIvPjx0ZXh0IGZpbGw9IiMwMDAwMDAiIGZvbnQtZmFtaWx5PSJzYW5zLXNlcmlmIiBmb250LXNpemU9IjEzIiBmb250LXdlaWdodD0iYm9sZCIgbGVuZ3RoQWRqdXN0PSJzcGFjaW5nIiB0ZXh0TGVuZ3RoPSIxNTQiIHg9IjQ1IiB5PSIxNDE1LjI3MzQiPlByaW9yaXRpemUgYW5kIEZpbmFsaXplPC90ZXh0PjxsaW5lIHN0eWxlPSJzdHJva2U6IzE4MTgxODtzdHJva2Utd2lkdGg6MS4wOyIgeDE9IjQyOCIgeDI9IjQ3MCIgeTE9IjE0MzcuODEyNSIgeTI9IjE0MzcuODEyNSIvPjxsaW5lIHN0eWxlPSJzdHJva2U6IzE4MTgxODtzdHJva2Utd2lkdGg6MS4wOyIgeDE9IjQ3MCIgeDI9IjQ3MCIgeTE9IjE0MzcuODEyNSIgeTI9IjE0NTAuODEyNSIvPjxsaW5lIHN0eWxlPSJzdHJva2U6IzE4MTgxODtzdHJva2Utd2lkdGg6MS4wOyIgeDE9IjQyOSIgeDI9IjQ3MCIgeTE9IjE0NTAuODEyNSIgeTI9IjE0NTAuODEyNSIvPjxwb2x5Z29uIGZpbGw9IiMxODE4MTgiIHBvaW50cz0iNDM5LDE0NDYuODEyNSw0MjksMTQ1MC44MTI1LDQzOSwxNDU0LjgxMjUsNDM1LDE0NTAuODEyNSIgc3R5bGU9InN0cm9rZTojMTgxODE4O3N0cm9rZS13aWR0aDoxLjA7Ii8+PHRleHQgZmlsbD0iIzAwMDAwMCIgZm9udC1mYW1pbHk9InNhbnMtc2VyaWYiIGZvbnQtc2l6ZT0iMTMiIGxlbmd0aEFkanVzdD0ic3BhY2luZyIgdGV4dExlbmd0aD0iMTc2IiB4PSI0MzUiIHk9IjE0MzQuMTg3NSI+UHJpb3JpdGl6ZSBmYXZvcmVkIHBsYXllcnM8L3RleHQ+PGxpbmUgc3R5bGU9InN0cm9rZTojMTgxODE4O3N0cm9rZS13aWR0aDoxLjA7IiB4MT0iNDI4IiB4Mj0iNDcwIiB5MT0iMTQ3OC43MjY2IiB5Mj0iMTQ3OC43MjY2Ii8+PGxpbmUgc3R5bGU9InN0cm9rZTojMTgxODE4O3N0cm9rZS13aWR0aDoxLjA7IiB4MT0iNDcwIiB4Mj0iNDcwIiB5MT0iMTQ3OC43MjY2IiB5Mj0iMTQ5MS43MjY2Ii8+PGxpbmUgc3R5bGU9InN0cm9rZTojMTgxODE4O3N0cm9rZS13aWR0aDoxLjA7IiB4MT0iNDI5IiB4Mj0iNDcwIiB5MT0iMTQ5MS43MjY2IiB5Mj0iMTQ5MS43MjY2Ii8+PHBvbHlnb24gZmlsbD0iIzE4MTgxOCIgcG9pbnRzPSI0MzksMTQ4Ny43MjY2LDQyOSwxNDkxLjcyNjYsNDM5LDE0OTUuNzI2Niw0MzUsMTQ5MS43MjY2IiBzdHlsZT0ic3Ryb2tlOiMxODE4MTg7c3Ryb2tlLXdpZHRoOjEuMDsiLz48dGV4dCBmaWxsPSIjMDAwMDAwIiBmb250LWZhbWlseT0ic2Fucy1zZXJpZiIgZm9udC1zaXplPSIxMyIgbGVuZ3RoQWRqdXN0PSJzcGFjaW5nIiB0ZXh0TGVuZ3RoPSIxNDkiIHg9IjQzNSIgeT0iMTQ3NS4xMDE2Ij5Tb3J0IHJlbWFpbmluZyBwbGF5ZXJzPC90ZXh0PjxwYXRoIGQ9Ik0zNzkuNSwxNTA2LjcyNjYgTDQ1MS41LDE1MDYuNzI2NiBMNDUxLjUsMTUxMi42NDA2IEw0NDEuNSwxNTIyLjY0MDYgTDM3OS41LDE1MjIuNjQwNiBMMzc5LjUsMTUwNi43MjY2ICIgZmlsbD0iI0VFRUVFRSIgc3R5bGU9InN0cm9rZTojMDAwMDAwO3N0cm9rZS13aWR0aDoxLjU7Ii8+PHJlY3QgZmlsbD0ibm9uZSIgaGVpZ2h0PSI5Ny43NDIyIiBzdHlsZT0ic3Ryb2tlOiMwMDAwMDA7c3Ryb2tlLXdpZHRoOjEuNTsiIHdpZHRoPSIyOTkuNSIgeD0iMzc5LjUiIHk9IjE1MDYuNzI2NiIvPjx0ZXh0IGZpbGw9IiMwMDAwMDAiIGZvbnQtZmFtaWx5PSJzYW5zLXNlcmlmIiBmb250LXNpemU9IjEzIiBmb250LXdlaWdodD0iYm9sZCIgbGVuZ3RoQWRqdXN0PSJzcGFjaW5nIiB0ZXh0TGVuZ3RoPSIyNyIgeD0iMzk0LjUiIHk9IjE1MjAuMDE1NiI+bG9vcDwvdGV4dD48dGV4dCBmaWxsPSIjMDAwMDAwIiBmb250LWZhbWlseT0ic2Fucy1zZXJpZiIgZm9udC1zaXplPSIxMSIgZm9udC13ZWlnaHQ9ImJvbGQiIGxlbmd0aEFkanVzdD0ic3BhY2luZyIgdGV4dExlbmd0aD0iMTk4IiB4PSI0NjYuNSIgeT0iMTUxOS4xMjUiPltJdGVyYXRlIG92ZXIgTG9zZXJzIGFuZCBXaW5uZXJzXTwvdGV4dD48bGluZSBzdHlsZT0ic3Ryb2tlOiMxODE4MTg7c3Ryb2tlLXdpZHRoOjEuMDsiIHgxPSI0MjgiIHgyPSI0NzAiIHkxPSIxNTQyLjU1NDciIHkyPSIxNTQyLjU1NDciLz48bGluZSBzdHlsZT0ic3Ryb2tlOiMxODE4MTg7c3Ryb2tlLXdpZHRoOjEuMDsiIHgxPSI0NzAiIHgyPSI0NzAiIHkxPSIxNTQyLjU1NDciIHkyPSIxNTU1LjU1NDciLz48bGluZSBzdHlsZT0ic3Ryb2tlOiMxODE4MTg7c3Ryb2tlLXdpZHRoOjEuMDsiIHgxPSI0MjkiIHgyPSI0NzAiIHkxPSIxNTU1LjU1NDciIHkyPSIxNTU1LjU1NDciLz48cG9seWdvbiBmaWxsPSIjMTgxODE4IiBwb2ludHM9IjQzOSwxNTUxLjU1NDcsNDI5LDE1NTUuNTU0Nyw0MzksMTU1OS41NTQ3LDQzNSwxNTU1LjU1NDciIHN0eWxlPSJzdHJva2U6IzE4MTgxODtzdHJva2Utd2lkdGg6MS4wOyIvPjx0ZXh0IGZpbGw9IiMwMDAwMDAiIGZvbnQtZmFtaWx5PSJzYW5zLXNlcmlmIiBmb250LXNpemU9IjEzIiBsZW5ndGhBZGp1c3Q9InNwYWNpbmciIHRleHRMZW5ndGg9IjIzMiIgeD0iNDM1IiB5PSIxNTM4LjkyOTciPlRyYW5zZmVyIG1vbmV5IGJhc2VkIG9uIGNvbmRpdGlvbnM8L3RleHQ+PGxpbmUgc3R5bGU9InN0cm9rZTojMTgxODE4O3N0cm9rZS13aWR0aDoxLjA7IiB4MT0iNDI4IiB4Mj0iNDcwIiB5MT0iMTU4My40Njg4IiB5Mj0iMTU4My40Njg4Ii8+PGxpbmUgc3R5bGU9InN0cm9rZTojMTgxODE4O3N0cm9rZS13aWR0aDoxLjA7IiB4MT0iNDcwIiB4Mj0iNDcwIiB5MT0iMTU4My40Njg4IiB5Mj0iMTU5Ni40Njg4Ii8+PGxpbmUgc3R5bGU9InN0cm9rZTojMTgxODE4O3N0cm9rZS13aWR0aDoxLjA7IiB4MT0iNDI5IiB4Mj0iNDcwIiB5MT0iMTU5Ni40Njg4IiB5Mj0iMTU5Ni40Njg4Ii8+PHBvbHlnb24gZmlsbD0iIzE4MTgxOCIgcG9pbnRzPSI0MzksMTU5Mi40Njg4LDQyOSwxNTk2LjQ2ODgsNDM5LDE2MDAuNDY4OCw0MzUsMTU5Ni40Njg4IiBzdHlsZT0ic3Ryb2tlOiMxODE4MTg7c3Ryb2tlLXdpZHRoOjEuMDsiLz48dGV4dCBmaWxsPSIjMDAwMDAwIiBmb250LWZhbWlseT0ic2Fucy1zZXJpZiIgZm9udC1zaXplPSIxMyIgbGVuZ3RoQWRqdXN0PSJzcGFjaW5nIiB0ZXh0TGVuZ3RoPSIxNzAiIHg9IjQzNSIgeT0iMTU3OS44NDM4Ij5VcGRhdGUgbGlzdHMgYW5kIGJhbGFuY2VzPC90ZXh0Pjxwb2x5Z29uIGZpbGw9IiMxODE4MTgiIHBvaW50cz0iNjgsMTYyNy4zODI4LDU4LDE2MzEuMzgyOCw2OCwxNjM1LjM4MjgsNjQsMTYzMS4zODI4IiBzdHlsZT0ic3Ryb2tlOiMxODE4MTg7c3Ryb2tlLXdpZHRoOjEuMDsiLz48bGluZSBzdHlsZT0ic3Ryb2tlOiMxODE4MTg7c3Ryb2tlLXdpZHRoOjEuMDsiIHgxPSI2MiIgeDI9IjQyNyIgeTE9IjE2MzEuMzgyOCIgeTI9IjE2MzEuMzgyOCIvPjx0ZXh0IGZpbGw9IiMwMDAwMDAiIGZvbnQtZmFtaWx5PSJzYW5zLXNlcmlmIiBmb250LXNpemU9IjEzIiBsZW5ndGhBZGp1c3Q9InNwYWNpbmciIHRleHRMZW5ndGg9IjIxNCIgeD0iNzQiIHk9IjE2MjcuNzU3OCI+UmV0dXJuIGZpbmFsIHRyYW5zYWN0aW9uIGRldGFpbHM8L3RleHQ+PHBhdGggZD0iTTIwLDE2NjAuMzgyOCBMMTI3LDE2NjAuMzgyOCBMMTI3LDE2NjYuMjk2OSBMMTE3LDE2NzYuMjk2OSBMMjAsMTY3Ni4yOTY5IEwyMCwxNjYwLjM4MjggIiBmaWxsPSIjRUVFRUVFIiBzdHlsZT0ic3Ryb2tlOiMwMDAwMDA7c3Ryb2tlLXdpZHRoOjEuNTsiLz48cmVjdCBmaWxsPSJub25lIiBoZWlnaHQ9IjMwOC45MTQxIiBzdHlsZT0ic3Ryb2tlOiMwMDAwMDA7c3Ryb2tlLXdpZHRoOjEuNTsiIHdpZHRoPSI5MDIiIHg9IjIwIiB5PSIxNjYwLjM4MjgiLz48dGV4dCBmaWxsPSIjMDAwMDAwIiBmb250LWZhbWlseT0ic2Fucy1zZXJpZiIgZm9udC1zaXplPSIxMyIgZm9udC13ZWlnaHQ9ImJvbGQiIGxlbmd0aEFkanVzdD0ic3BhY2luZyIgdGV4dExlbmd0aD0iNjIiIHg9IjM1IiB5PSIxNjczLjY3MTkiPlNhdmUgRGF0YTwvdGV4dD48cG9seWdvbiBmaWxsPSIjMTgxODE4IiBwb2ludHM9IjQxNiwxNjkyLjIxMDksNDI2LDE2OTYuMjEwOSw0MTYsMTcwMC4yMTA5LDQyMCwxNjk2LjIxMDkiIHN0eWxlPSJzdHJva2U6IzE4MTgxODtzdHJva2Utd2lkdGg6MS4wOyIvPjxsaW5lIHN0eWxlPSJzdHJva2U6IzE4MTgxODtzdHJva2Utd2lkdGg6MS4wOyIgeDE9IjU3IiB4Mj0iNDIyIiB5MT0iMTY5Ni4yMTA5IiB5Mj0iMTY5Ni4yMTA5Ii8+PHRleHQgZmlsbD0iIzAwMDAwMCIgZm9udC1mYW1pbHk9InNhbnMtc2VyaWYiIGZvbnQtc2l6ZT0iMTMiIGxlbmd0aEFkanVzdD0ic3BhY2luZyIgdGV4dExlbmd0aD0iMTU4IiB4PSI2NCIgeT0iMTY5Mi41ODU5Ij5DaG9vc2UgdG8gc2F2ZSB0aGUgZGF0YTwvdGV4dD48bGluZSBzdHlsZT0ic3Ryb2tlOiMxODE4MTg7c3Ryb2tlLXdpZHRoOjEuMDsiIHgxPSI0MjgiIHgyPSI0NzAiIHkxPSIxNzI0LjEyNSIgeTI9IjE3MjQuMTI1Ii8+PGxpbmUgc3R5bGU9InN0cm9rZTojMTgxODE4O3N0cm9rZS13aWR0aDoxLjA7IiB4MT0iNDcwIiB4Mj0iNDcwIiB5MT0iMTcyNC4xMjUiIHkyPSIxNzM3LjEyNSIvPjxsaW5lIHN0eWxlPSJzdHJva2U6IzE4MTgxODtzdHJva2Utd2lkdGg6MS4wOyIgeDE9IjQyOSIgeDI9IjQ3MCIgeTE9IjE3MzcuMTI1IiB5Mj0iMTczNy4xMjUiLz48cG9seWdvbiBmaWxsPSIjMTgxODE4IiBwb2ludHM9IjQzOSwxNzMzLjEyNSw0MjksMTczNy4xMjUsNDM5LDE3NDEuMTI1LDQzNSwxNzM3LjEyNSIgc3R5bGU9InN0cm9rZTojMTgxODE4O3N0cm9rZS13aWR0aDoxLjA7Ii8+PHRleHQgZmlsbD0iIzAwMDAwMCIgZm9udC1mYW1pbHk9InNhbnMtc2VyaWYiIGZvbnQtc2l6ZT0iMTMiIGxlbmd0aEFkanVzdD0ic3BhY2luZyIgdGV4dExlbmd0aD0iMzI5IiB4PSI0MzUiIHk9IjE3MjAuNSI+Q2hlY2sgaG93ICJDYWxjdWxhdGUgV2hvIE93ZXMgV2hvbSIgd2FzIGFjY2Vzc2VkPC90ZXh0PjxwYXRoIGQ9Ik0zMCwxNzUyLjEyNSBMOTQsMTc1Mi4xMjUgTDk0LDE3NTguMDM5MSBMODQsMTc2OC4wMzkxIEwzMCwxNzY4LjAzOTEgTDMwLDE3NTIuMTI1ICIgZmlsbD0iI0VFRUVFRSIgc3R5bGU9InN0cm9rZTojMDAwMDAwO3N0cm9rZS13aWR0aDoxLjU7Ii8+PHJlY3QgZmlsbD0ibm9uZSIgaGVpZ2h0PSIxMjYuNDI5NyIgc3R5bGU9InN0cm9rZTojMDAwMDAwO3N0cm9rZS13aWR0aDoxLjU7IiB3aWR0aD0iNTg1IiB4PSIzMCIgeT0iMTc1Mi4xMjUiLz48dGV4dCBmaWxsPSIjMDAwMDAwIiBmb250LWZhbWlseT0ic2Fucy1zZXJpZiIgZm9udC1zaXplPSIxMyIgZm9udC13ZWlnaHQ9ImJvbGQiIGxlbmd0aEFkanVzdD0ic3BhY2luZyIgdGV4dExlbmd0aD0iMTkiIHg9IjQ1IiB5PSIxNzY1LjQxNDEiPmFsdDwvdGV4dD48dGV4dCBmaWxsPSIjMDAwMDAwIiBmb250LWZhbWlseT0ic2Fucy1zZXJpZiIgZm9udC1zaXplPSIxMSIgZm9udC13ZWlnaHQ9ImJvbGQiIGxlbmd0aEFkanVzdD0ic3BhY2luZyIgdGV4dExlbmd0aD0iMTYyIiB4PSIxMDkiIHk9IjE3NjQuNTIzNCI+W0FjY2Vzc2VkIGZyb20gbWFpbiBzY3JlZW5dPC90ZXh0Pjxwb2x5Z29uIGZpbGw9IiMxODE4MTgiIHBvaW50cz0iNjgsMTc4My45NTMxLDU4LDE3ODcuOTUzMSw2OCwxNzkxLjk1MzEsNjQsMTc4Ny45NTMxIiBzdHlsZT0ic3Ryb2tlOiMxODE4MTg7c3Ryb2tlLXdpZHRoOjEuMDsiLz48bGluZSBzdHlsZT0ic3Ryb2tlOiMxODE4MTg7c3Ryb2tlLXdpZHRoOjEuMDsiIHgxPSI2MiIgeDI9IjQyNyIgeTE9IjE3ODcuOTUzMSIgeTI9IjE3ODcuOTUzMSIvPjx0ZXh0IGZpbGw9IiMwMDAwMDAiIGZvbnQtZmFtaWx5PSJzYW5zLXNlcmlmIiBmb250LXNpemU9IjEzIiBsZW5ndGhBZGp1c3Q9InNwYWNpbmciIHRleHRMZW5ndGg9IjM0NyIgeD0iNzQiIHk9IjE3ODQuMzI4MSI+UmVxdWVzdCBhZGRpdGlvbmFsIGluZm9ybWF0aW9uIChHYW1lIERhdGUsIExvY2F0aW9uKTwvdGV4dD48cG9seWdvbiBmaWxsPSIjMTgxODE4IiBwb2ludHM9IjQxNiwxODExLjg2NzIsNDI2LDE4MTUuODY3Miw0MTYsMTgxOS44NjcyLDQyMCwxODE1Ljg2NzIiIHN0eWxlPSJzdHJva2U6IzE4MTgxODtzdHJva2Utd2lkdGg6MS4wOyIvPjxsaW5lIHN0eWxlPSJzdHJva2U6IzE4MTgxODtzdHJva2Utd2lkdGg6MS4wOyIgeDE9IjU3IiB4Mj0iNDIyIiB5MT0iMTgxNS44NjcyIiB5Mj0iMTgxNS44NjcyIi8+PHRleHQgZmlsbD0iIzAwMDAwMCIgZm9udC1mYW1pbHk9InNhbnMtc2VyaWYiIGZvbnQtc2l6ZT0iMTMiIGxlbmd0aEFkanVzdD0ic3BhY2luZyIgdGV4dExlbmd0aD0iMjA1IiB4PSI2NCIgeT0iMTgxMi4yNDIyIj5Qcm92aWRlIEdhbWUgRGF0ZSBhbmQgTG9jYXRpb248L3RleHQ+PGxpbmUgc3R5bGU9InN0cm9rZTojMDAwMDAwO3N0cm9rZS13aWR0aDoxLjA7c3Ryb2tlLWRhc2hhcnJheToyLjAsMi4wOyIgeDE9IjMwIiB4Mj0iNjE1IiB5MT0iMTgyNC44NjcyIiB5Mj0iMTgyNC44NjcyIi8+PHRleHQgZmlsbD0iIzAwMDAwMCIgZm9udC1mYW1pbHk9InNhbnMtc2VyaWYiIGZvbnQtc2l6ZT0iMTEiIGZvbnQtd2VpZ2h0PSJib2xkIiBsZW5ndGhBZGp1c3Q9InNwYWNpbmciIHRleHRMZW5ndGg9IjIwNCIgeD0iMzUiIHk9IjE4MzUuMjY1NiI+W0FjY2Vzc2VkIGFmdGVyIGEgZ2FtZSBpbiB0aGUgYXBwXTwvdGV4dD48bGluZSBzdHlsZT0ic3Ryb2tlOiMxODE4MTg7c3Ryb2tlLXdpZHRoOjEuMDsiIHgxPSI0MjgiIHgyPSI0NzAiIHkxPSIxODU3LjU1NDciIHkyPSIxODU3LjU1NDciLz48bGluZSBzdHlsZT0ic3Ryb2tlOiMxODE4MTg7c3Ryb2tlLXdpZHRoOjEuMDsiIHgxPSI0NzAiIHgyPSI0NzAiIHkxPSIxODU3LjU1NDciIHkyPSIxODcwLjU1NDciLz48bGluZSBzdHlsZT0ic3Ryb2tlOiMxODE4MTg7c3Ryb2tlLXdpZHRoOjEuMDsiIHgxPSI0MjkiIHgyPSI0NzAiIHkxPSIxODcwLjU1NDciIHkyPSIxODcwLjU1NDciLz48cG9seWdvbiBmaWxsPSIjMTgxODE4IiBwb2ludHM9IjQzOSwxODY2LjU1NDcsNDI5LDE4NzAuNTU0Nyw0MzksMTg3NC41NTQ3LDQzNSwxODcwLjU1NDciIHN0eWxlPSJzdHJva2U6IzE4MTgxODtzdHJva2Utd2lkdGg6MS4wOyIvPjx0ZXh0IGZpbGw9IiMwMDAwMDAiIGZvbnQtZmFtaWx5PSJzYW5zLXNlcmlmIiBmb250LXNpemU9IjEzIiBsZW5ndGhBZGp1c3Q9InNwYWNpbmciIHRleHRMZW5ndGg9IjE2OCIgeD0iNDM1IiB5PSIxODUzLjkyOTciPlVzZSBleGlzdGluZyBnYW1lIGRldGFpbHM8L3RleHQ+PHBvbHlnb24gZmlsbD0iIzE4MTgxOCIgcG9pbnRzPSI4NjUsMTkwMS40Njg4LDg3NSwxOTA1LjQ2ODgsODY1LDE5MDkuNDY4OCw4NjksMTkwNS40Njg4IiBzdHlsZT0ic3Ryb2tlOiMxODE4MTg7c3Ryb2tlLXdpZHRoOjEuMDsiLz48bGluZSBzdHlsZT0ic3Ryb2tlOiMxODE4MTg7c3Ryb2tlLXdpZHRoOjEuMDsiIHgxPSI0MjgiIHgyPSI4NzEiIHkxPSIxOTA1LjQ2ODgiIHkyPSIxOTA1LjQ2ODgiLz48dGV4dCBmaWxsPSIjMDAwMDAwIiBmb250LWZhbWlseT0ic2Fucy1zZXJpZiIgZm9udC1zaXplPSIxMyIgbGVuZ3RoQWRqdXN0PSJzcGFjaW5nIiB0ZXh0TGVuZ3RoPSIxOTIiIHg9IjQzNSIgeT0iMTkwMS44NDM4Ij5TYXZlIHRoZSBnYW1lIGRhdGEgYW5kIGRlYnRzPC90ZXh0Pjxwb2x5Z29uIGZpbGw9IiMxODE4MTgiIHBvaW50cz0iNDM5LDE5MjkuMzgyOCw0MjksMTkzMy4zODI4LDQzOSwxOTM3LjM4MjgsNDM1LDE5MzMuMzgyOCIgc3R5bGU9InN0cm9rZTojMTgxODE4O3N0cm9rZS13aWR0aDoxLjA7Ii8+PGxpbmUgc3R5bGU9InN0cm9rZTojMTgxODE4O3N0cm9rZS13aWR0aDoxLjA7IiB4MT0iNDMzIiB4Mj0iODc2IiB5MT0iMTkzMy4zODI4IiB5Mj0iMTkzMy4zODI4Ii8+PHRleHQgZmlsbD0iIzAwMDAwMCIgZm9udC1mYW1pbHk9InNhbnMtc2VyaWYiIGZvbnQtc2l6ZT0iMTMiIGxlbmd0aEFkanVzdD0ic3BhY2luZyIgdGV4dExlbmd0aD0iMTIyIiB4PSI0NDUiIHk9IjE5MjkuNzU3OCI+Q29uZmlybSBkYXRhIHNhdmVkPC90ZXh0Pjxwb2x5Z29uIGZpbGw9IiMxODE4MTgiIHBvaW50cz0iNjgsMTk1Ny4yOTY5LDU4LDE5NjEuMjk2OSw2OCwxOTY1LjI5NjksNjQsMTk2MS4yOTY5IiBzdHlsZT0ic3Ryb2tlOiMxODE4MTg7c3Ryb2tlLXdpZHRoOjEuMDsiLz48bGluZSBzdHlsZT0ic3Ryb2tlOiMxODE4MTg7c3Ryb2tlLXdpZHRoOjEuMDsiIHgxPSI2MiIgeDI9IjQyNyIgeTE9IjE5NjEuMjk2OSIgeTI9IjE5NjEuMjk2OSIvPjx0ZXh0IGZpbGw9IiMwMDAwMDAiIGZvbnQtZmFtaWx5PSJzYW5zLXNlcmlmIiBmb250LXNpemU9IjEzIiBsZW5ndGhBZGp1c3Q9InNwYWNpbmciIHRleHRMZW5ndGg9IjE2OCIgeD0iNzQiIHk9IjE5NTcuNjcxOSI+Tm90aWZ5IHRoYXQgZGF0YSBpcyBzYXZlZDwvdGV4dD48IS0tU1JDPVtkTFJSUmppbTM3dHRMbjF2d2UzajFfZW1PRWpiQUQya0dSRWtwd25DbnE5Ym9QRmFORlJyOG9OUkpSOHU2SE9XWTJGcFNpWDNLYUdMZE9WZEcxdW1HQ1VfSE9pLVFnTFJqMTdjeGV0eTBxUUlqczRSOFpMeHh3eW51YlNDd05OOXB3X3lOMUhZMVp2enhYS2tPSDVQMU1QTlE1SGRuRFhCeFUxbkpLNFVQYU1uekF2aHVNT0pGUWU4VHhSamlrSzItOUVEWTNhblVtYkZ6QWtaNDQ0ZENONEE1bzV3UlBWMGFJb25lTkp1OElhVjhmYnhqejhieElXVi0xVzRWd0JIZkszRGFqYjFhYUtwR0VvendXMGhhS3ZsWnJqWmp1Z2VYRVowcWFPcWdLdFlQM1h0WHpRcWRSQU5DXzNUSExyalNzbmlLSmRsSVVyNFNvaG1OZlluZkMxRU83d1lyTHVFQ2J2UjVsQmpBTmxxSXhKd0RuclpReDFwdktiaWI1ZjV4SXB3QlFucmhBNHJrNk04OE04Q0t2ZXJnSlZHNUdTUHFTM05SZGpkZVM2ZVFnd1N5VW9uWG9ReV85MzNhNk4tY3V4MVkwdkpUWjhEWXN3dmI0OENwZEdJTWUyQTJ4M0k2dzZucjQ1dnVYdkhjaTlQTGhmTXlicGtLdFlDNGZMSWFjOEZubVlQWXF6RjJTYzJPWkkydlBmVWZ0RVNzSzVSU1hwU2ZGVUU4T1B4cE43OXNPa3NqbHlfT1UzVWtIUFlwVHdOekpiajh4OGYtSTYwZDhPSm1Md3Y5ZUxZbkVPU2pyeVFyemJpVHZ0aVpjVVo0SWMxY3V0Q2E3dGNaaDR0dnN3QnFFQXM4SGpKNlA4eUpVV0NlMXhHbHNMNEVxMWEtQ3JRckVOaVpGT0pETXY1ZDJxLWhobmhtNURla0hpcjd2Z3pUQUgydjN1N0VYbEVVeHZpckJSWk9rOVZteGFtRlJvR2UyUkcwTDgxU1FOWDRoTGJjV1hMM091SC1OVlZqWG5CZ3YyS05qeWtPNHctYVk3cGFEbGxOdWdYenB1WG9iVEVDaW16TTZkNmJxQUtRYk1rVVRLTUtxVURaSnN1SnI5U3RQc1Q3ZS1Qc0kzTGRvWTVhWTlnU3doTWRiRl9kSWxWZGZHcDhBUTZKNHY3aVBsWE9uTklTWnlVZXYweGVTc1RHbVNUaHZ0TktPUW1PQnhicjFkLUtxbzE2Z0toTjNkRi1GOFdkZzlmOEtGMUt5Rkw4a0ppMmdUa2xlbGE5TkxTcnh4RnRzeGtKa0pkWHFTUkFqUGdkQUtqb0VQR1doRkNsb3RyRV9pZDJLakRhX296ZWs1UElzNFlseUZnNDNqbGZUeHV3ZVpZN3pFYkQ1UjhtSkhUdTZoZFFaaVN0YlVydXRZNXR1MnZncXlqNUZhb2d6cndRV3pnUGgzY0dPQWd2dFdlX0lfekdQdU9HV0o4cks5c2lXNjYzR2RCZDRXRUxiay00UGhLTDczbkpOT2EzZWktQ2NDZzdOdXVVcU1ESVlkVFd6dnhOdW1taU9lbzRsQ2NuYzBiQnpZc2Z5WGFUVGVtYkw5WFVPN1J3VFlfb0htTXBTakNhM1dPcnh3NGhYbWxsNDdxTzUxTXNaVFBOQVd4TllwemJYTGh4QlRDdGlvb0QyRncwbTAwXS0tPjwvZz48L3N2Zz4=;" vertex="1" parent="1">
            <mxGeometry x="-39" y="930" width="928" height="2065" as="geometry" />
          </mxCell>
        </UserObject>
      </root>
    </mxGraphModel>
  </diagram>
</mxfile>
